<?xml version="1.0" encoding="UTF-8"?>
<svg version="1.1" xmlns="http://www.w3.org/2000/svg" width="501" height="501">
<path d="M0 0 C165.33 0 330.66 0 501 0 C501 165.33 501 330.66 501 501 C335.67 501 170.34 501 0 501 C0 335.67 0 170.34 0 0 Z " fill="#F4CE52" transform="translate(0,0)"/>
<path d="M0 0 C0.72832031 0.52335938 1.45664062 1.04671875 2.20703125 1.5859375 C11.16458986 8.66556638 15.69951518 18.78822053 17.6875 29.8125 C17.81299427 31.20657768 17.91532417 32.60284883 18 34 C18.06445312 34.83660156 18.12890625 35.67320312 18.1953125 36.53515625 C18.46337529 43.03121117 17.57736913 48.99843095 16.1875 55.3125 C16.0222583 56.06515137 15.8570166 56.81780273 15.68676758 57.59326172 C14.54222592 62.46335379 13.03975601 66.24056931 11 71 C-5.83 71 -22.66 71 -40 71 C-38 66 -38 66 -36.375 63 C-34.09283822 57.71376812 -34.27404044 51.62262798 -35 46 C-36.44634294 43.27580706 -36.44634294 43.27580706 -38 41 C-38 40.34 -38 39.68 -38 39 C-39.65984798 38.31653318 -41.32836805 37.65411685 -43 37 C-43.83789062 36.65453125 -44.67578125 36.3090625 -45.5390625 35.953125 C-55.26814186 33.27378486 -69.09465989 33.18550609 -78.1875 37.796875 C-82.7746524 40.84179513 -85.32469417 43.79118886 -87 49 C-87.35243364 52.44596633 -87.35243364 52.44596633 -87.3125 56.0625 C-87.33763672 57.87427734 -87.33763672 57.87427734 -87.36328125 59.72265625 C-86.97551519 63.22088987 -86.26279861 64.41479736 -84 67 C-84 67.66 -84 68.32 -84 69 C-74.16401986 73.00032163 -64.45976271 75.69873445 -54 77.5 C-42.40858135 79.49614692 -31.47582579 82.20595721 -21.125 87.9375 C-20.51398438 88.25912109 -19.90296875 88.58074219 -19.2734375 88.91210938 C-6.67703815 95.73515902 0.43449342 106.93197634 5.15234375 120.25390625 C6.1954021 124.86355122 6.3423774 129.16389621 6.3125 133.875 C6.30512817 135.25558594 6.30512817 135.25558594 6.29760742 136.6640625 C5.97378748 155.90062752 1.31017881 175.42586746 -12.25 189.75 C-33.89328097 210.17293014 -65.10790392 209.89623604 -92.98745728 209.23304749 C-109.91254574 208.71642697 -126.84736387 205.22966921 -139.75 193.5 C-140.4925 192.675 -141.235 191.85 -142 191 C-142.66 190.29875 -143.32 189.5975 -144 188.875 C-151.55907373 178.00883152 -153.3464661 166.81753533 -153.25 153.875 C-153.25773438 152.82957031 -153.26546875 151.78414062 -153.2734375 150.70703125 C-153.27085937 149.68738281 -153.26828125 148.66773438 -153.265625 147.6171875 C-153.26336914 146.70565918 -153.26111328 145.79413086 -153.25878906 144.85498047 C-153 142 -153 142 -151 135 C-134.17 135 -117.34 135 -100 135 C-100 140.61 -100 146.22 -100 152 C-96.26606945 159.08262725 -96.26606945 159.08262725 -90 162 C-84.58627857 163.27578825 -79.28633907 163.22186105 -73.75 163.25 C-72.75097656 163.270625 -71.75195312 163.29125 -70.72265625 163.3125 C-64.03780691 163.34745346 -56.85431218 163.09815769 -51.41333008 158.72460938 C-47.2540337 154.18418824 -45.97856021 148.92521325 -45.625 142.9375 C-46.12361601 137.70203186 -47.6115021 135.06436806 -51.59936523 131.61767578 C-59.16720277 126.12356718 -67.80907835 123.7674751 -76.625 121 C-109.00690938 110.6957504 -109.00690938 110.6957504 -122 101 C-122.86238281 100.35675781 -123.72476563 99.71351563 -124.61328125 99.05078125 C-132.14980485 92.57504493 -137.29449082 82.72929571 -139 73 C-140.5917321 51.19217244 -137.34994273 30.29179252 -122.9296875 13.01953125 C-96.8647415 -14.25896487 -30.98653922 -23.25422352 0 0 Z " fill="#121211" transform="translate(307,178)"/>
<path d="M0 0 C0.9075 -0.01611328 1.815 -0.03222656 2.75 -0.04882812 C10.01690007 -0.05406364 15.78666488 0.90608545 21.5 5.75 C26.54980125 11.83946621 26.24542821 17.61354999 25.625 25.3125 C24.48092509 29.78692996 21.99918918 33.35551804 19.625 37.3125 C35.795 37.3125 51.965 37.3125 68.625 37.3125 C68.295 38.3025 67.965 39.2925 67.625 40.3125 C68.285 40.6425 68.945 40.9725 69.625 41.3125 C67.975 41.6425 66.325 41.9725 64.625 42.3125 C64.295 41.3225 63.965 40.3325 63.625 39.3125 C61.13138429 40.51631448 58.94356917 41.76678722 56.625 43.3125 C55.04191638 43.1256231 53.45937074 42.92143685 51.89013672 42.64111328 C46.86829065 41.91257213 41.75321271 41.92567281 36.6875 41.75 C34.94629883 41.68522461 34.94629883 41.68522461 33.16992188 41.61914062 C30.32171768 41.51365158 27.47343471 41.41153445 24.625 41.3125 C24.41418149 45.20709074 24.41418149 45.20709074 25.625 48.3125 C19.01872399 47.44500921 12.48449528 46.23153885 5.9375 45 C4.82955078 44.79955078 3.72160156 44.59910156 2.58007812 44.39257812 C-19.45459407 40.23290593 -19.45459407 40.23290593 -26.6875 33 C-29.86935164 27.81812733 -29.01026269 21.10265472 -28.375 15.3125 C-27.10632862 10.21402689 -24.85243455 7.33078503 -20.5 4.4375 C-13.77283532 0.54282571 -7.6125206 -0.02680465 0 0 Z " fill="#F3CF52" transform="translate(247.375,211.6875)"/>
<path d="M0 0 C3.15513357 2.07951985 4.88159747 3.50686475 6.75 6.8125 C7.5731802 11.35679067 7.4382988 14.56463659 5.18359375 18.65234375 C2.21637789 22.50543786 -1.09967271 25.67010574 -4.6875 28.9375 C-5.39036133 29.5862207 -6.09322266 30.23494141 -6.81738281 30.90332031 C-8.25793526 32.23201045 -9.70080593 33.55819164 -11.14599609 34.88183594 C-13.12298617 36.69595029 -15.08909275 38.52092951 -17.05078125 40.3515625 C-18.20038002 41.42202624 -19.35011201 42.49234694 -20.5 43.5625 C-21.02392334 44.05121582 -21.54784668 44.53993164 -22.08764648 45.04345703 C-28.15078094 50.65073911 -31.8413644 53.02537685 -40.25 52.8125 C-45.02812833 51.21979056 -47.4070524 48.91897987 -50.25 44.8125 C-52.01370765 41.28508471 -51.15577239 37.54960289 -50.25 33.8125 C-47.39376387 29.4848695 -43.76676438 26.42467541 -39.83984375 23.078125 C-36.30081443 19.98214158 -32.87153985 16.77406201 -29.4375 13.5625 C-28.44967529 12.64017578 -28.44967529 12.64017578 -27.44189453 11.69921875 C-23.98027247 8.48444761 -23.98027247 8.48444761 -20.66918945 5.11816406 C-19.25 3.8125 -19.25 3.8125 -17.25 3.8125 C-17.25 3.1525 -17.25 2.4925 -17.25 1.8125 C-11.26718093 -1.77719144 -6.50094161 -2.37534405 0 0 Z " fill="#030203" transform="translate(366.25,120.1875)"/>
<path d="M0 0 C4.6219924 2.90821994 8.27270174 7.05254773 12.05078125 10.94921875 C14.25858452 13.18897286 16.48431946 15.27493395 18.875 17.3125 C23.41585288 21.18997725 27.56599052 25.4327084 31.75 29.6875 C32.47832031 30.35652344 33.20664063 31.02554688 33.95703125 31.71484375 C36.19574191 34.17791322 36.59745759 36.38096789 36.84765625 39.6640625 C36.63519028 44.06635736 34.5283138 46.81484513 31.6875 50 C27.43492675 52.44296761 23.63459972 53.09954446 18.75 52.6875 C12.6592714 50.53318674 8.33668845 45.47371304 3.953125 40.93359375 C2.03240105 38.97540887 0.07880957 37.16120402 -2 35.375 C-5.75670059 32.13541609 -9.45457027 28.83670854 -13.125 25.5 C-13.69702148 24.98848389 -14.26904297 24.47696777 -14.85839844 23.94995117 C-19.23676122 19.94910114 -21.05529989 17.69940112 -21.625 11.8125 C-21.48698086 7.45271905 -20.21886037 4.96085887 -17.25 1.6875 C-11.32203646 -1.66795106 -6.38896994 -2.58016094 0 0 Z " fill="#030203" transform="translate(148.25,120.3125)"/>
<path d="M0 0 C3.93457945 2.26994968 5.15978089 3.83983982 7.25 7.875 C7.82038653 11.34739164 7.81108884 14.7643586 7.78125 18.27734375 C7.7850769 19.27327042 7.78890381 20.26919708 7.79284668 21.29530334 C7.79556133 23.39569106 7.78823156 25.49611284 7.77148438 27.59643555 C7.7500916 30.79878737 7.7712902 33.99888998 7.796875 37.20117188 C7.7942312 39.24740075 7.78910515 41.29362824 7.78125 43.33984375 C7.78934692 44.29108627 7.79744385 45.2423288 7.80578613 46.22239685 C7.72090354 52.28841753 6.81928794 55.92151084 3.25 60.875 C-1.40976863 64.23436808 -6.17643385 64.76397381 -11.75 63.875 C-16.77902329 61.45361842 -18.74955611 59.01746297 -20.75 53.875 C-21.18736381 50.39367576 -21.19435353 46.94293588 -21.18359375 43.4375 C-21.1888356 42.43920166 -21.19407745 41.44090332 -21.19947815 40.41235352 C-21.20588372 38.30778938 -21.20458039 36.20318938 -21.19604492 34.09863281 C-21.18752761 30.8854179 -21.21632954 27.67397736 -21.24804688 24.4609375 C-21.24965892 22.41145886 -21.2490813 20.36197709 -21.24609375 18.3125 C-21.25732773 17.35609619 -21.26856171 16.39969238 -21.28013611 15.41430664 C-21.21940051 9.58003819 -20.57755329 6.3470493 -16.75 1.875 C-11.5478865 -2.46009459 -6.09861483 -1.82958445 0 0 Z " fill="#010101" transform="translate(256.75,78.125)"/>
<path d="M0 0 C1.04158264 -0.01283524 2.08316528 -0.02567047 3.15631104 -0.03889465 C4.28647644 -0.04628159 5.41664185 -0.05366852 6.58105469 -0.0612793 C7.74038513 -0.06935104 8.89971558 -0.07742279 10.09417725 -0.08573914 C12.55219015 -0.09958939 15.01022235 -0.11030732 17.46826172 -0.11816406 C21.22367955 -0.13536408 24.97821438 -0.17924195 28.73339844 -0.22338867 C31.12011071 -0.23351646 33.50683047 -0.24203229 35.89355469 -0.2487793 C37.57665741 -0.27504143 37.57665741 -0.27504143 39.29376221 -0.30183411 C45.52071201 -0.28455322 49.28583208 -0.03302227 54.00292969 4.17700195 C56.75975475 7.28954638 57.22647219 9.5771888 57.00292969 13.61450195 C56.24408028 18.51030456 54.656663 20.84804494 51.00292969 24.17700195 C45.51923687 26.67743298 40.07303366 26.49974661 34.16308594 26.51293945 C33.12276718 26.51959625 32.08244843 26.52625305 31.01060486 26.53311157 C28.81608848 26.54321161 26.62154155 26.54792941 24.42700195 26.54760742 C21.08004981 26.55198284 17.73441465 26.58833796 14.38769531 26.6262207 C12.25033001 26.63208904 10.11295847 26.63605832 7.97558594 26.63793945 C6.98059586 26.65231049 5.98560577 26.66668152 4.96046448 26.68148804 C-1.24434581 26.64091875 -4.92612939 25.81856429 -9.99707031 22.17700195 C-13.15128643 18.6157902 -13.62466145 15.0916783 -13.49316406 10.46606445 C-12.62115557 6.44246622 -10.03908626 3.82497438 -6.99707031 1.17700195 C-4.50492074 -0.06907283 -2.78862935 0.02987141 0 0 Z " fill="#030101" transform="translate(94.9970703125,220.822998046875)"/>
<path d="M0 0 C1.03812836 -0.01913956 2.07625671 -0.03827911 3.14584351 -0.05799866 C4.257388 -0.06133713 5.3689325 -0.0646756 6.51416016 -0.06811523 C7.66687408 -0.07810043 8.81958801 -0.08808563 10.00723267 -0.09837341 C12.44309911 -0.11354569 14.87902776 -0.12059948 17.31494141 -0.12011719 C21.03343889 -0.1266741 24.74926043 -0.18115872 28.46728516 -0.23803711 C30.83706772 -0.24684049 33.20686293 -0.25279383 35.57666016 -0.25561523 C37.23790421 -0.28795006 37.23790421 -0.28795006 38.93270874 -0.32093811 C45.26530619 -0.26497551 48.91720424 0.40726812 53.47476196 4.95228577 C56.1037375 8.19302228 56.01398467 11.07812734 55.95556641 15.11547852 C55.52026038 18.75733453 54.10968401 20.74838636 51.67822266 23.43579102 C46.22272935 27.05481898 41.15554862 26.87270563 34.83837891 26.83422852 C33.27790077 26.83853378 33.27790077 26.83853378 31.68589783 26.84292603 C29.49135797 26.84496251 27.29679979 26.8394618 25.10229492 26.8269043 C21.7554433 26.81086158 18.40980225 26.82675936 15.06298828 26.84594727 C12.92561584 26.84396444 10.78824415 26.84011996 8.65087891 26.83422852 C7.65588882 26.84030121 6.66089874 26.8463739 5.63575745 26.85263062 C-1.25097047 26.7834306 -6.38852242 26.06028226 -11.69677734 21.31079102 C-13.9107614 17.39374231 -14.65475361 13.93097057 -14.32177734 9.43579102 C-11.26812013 3.09357989 -7.02907672 0.08839574 0 0 Z " fill="#020101" transform="translate(362.32177734375,220.564208984375)"/>
<path d="M0 0 C3.14735717 0.27654417 6.29241854 0.5737556 9.4375 0.875 C10.33533203 0.95363281 11.23316406 1.03226563 12.15820312 1.11328125 C13.01220703 1.19707031 13.86621094 1.28085938 14.74609375 1.3671875 C15.53685303 1.44050293 16.3276123 1.51381836 17.14233398 1.58935547 C17.75536377 1.72486816 18.36839355 1.86038086 19 2 C19.33 2.66 19.66 3.32 20 4 C25.83581198 5.26865478 32.05675342 5.55836234 38 5 C38.99 4.34 39.98 3.68 41 3 C40.505 1.515 40.505 1.515 40 0 C55.84 0 71.68 0 88 0 C87.67 0.99 87.34 1.98 87 3 C87.99 3.495 87.99 3.495 89 4 C87.35 4.33 85.7 4.66 84 5 C83.505 3.515 83.505 3.515 83 2 C80.50638429 3.20381448 78.31856917 4.45428722 76 6 C74.41691638 5.8131231 72.83437074 5.60893685 71.26513672 5.32861328 C66.24329065 4.60007213 61.12821271 4.61317281 56.0625 4.4375 C54.90169922 4.39431641 53.74089844 4.35113281 52.54492188 4.30664062 C49.69671768 4.20115158 46.84843471 4.09903445 44 4 C43.78918149 7.89459074 43.78918149 7.89459074 45 11 C38.39372399 10.13250921 31.85949528 8.91903885 25.3125 7.6875 C24.20455078 7.48705078 23.09660156 7.28660156 21.95507812 7.08007812 C14.38845875 5.65166313 7.23977749 3.61975876 0 1 C0 0.67 0 0.34 0 0 Z " fill="#F2CE5A" transform="translate(228,249)"/>
<path d="M0 0 C0.92103516 -0.020625 1.84207031 -0.04125 2.79101562 -0.0625 C10.13965001 -0.10422397 15.90246975 0.78280044 21.6875 5.6875 C26.7377999 11.77756752 26.43143023 17.55088303 25.8125 25.25 C24.812747 29.28325011 23.09317548 32.59421509 19.8125 35.25 C20.1425 32.94 20.4725 30.63 20.8125 28.25 C21.8025 27.92 22.7925 27.59 23.8125 27.25 C23.83953381 25.31257659 23.85891125 23.37504521 23.875 21.4375 C23.88660156 20.35855469 23.89820313 19.27960938 23.91015625 18.16796875 C23.77620638 14.16554658 23.14568852 12.618261 20.4375 9.625 C17.98139166 7.08296941 17.98139166 7.08296941 14.8125 6.25 C15.4725 7.57 16.1325 8.89 16.8125 10.25 C15.1625 10.58 13.5125 10.91 11.8125 11.25 C11.31234375 10.43144531 10.8121875 9.61289063 10.296875 8.76953125 C7.96361831 5.88813715 7.96361831 5.88813715 4.140625 5.76171875 C2.7803884 5.7947342 1.42057662 5.85406429 0.0625 5.9375 C-0.98357422 5.97133789 -0.98357422 5.97133789 -2.05078125 6.00585938 C-3.76394935 6.06452952 -5.47600623 6.15420744 -7.1875 6.25 C-7.1875 5.26 -7.1875 4.27 -7.1875 3.25 C-8.5075 3.25 -9.8275 3.25 -11.1875 3.25 C-11.1875 3.91 -11.1875 4.57 -11.1875 5.25 C-13.8275 5.58 -16.4675 5.91 -19.1875 6.25 C-19.5175 7.24 -19.8475 8.23 -20.1875 9.25 C-20.8475 9.25 -21.5075 9.25 -22.1875 9.25 C-22.5175 8.26 -22.8475 7.27 -23.1875 6.25 C-21.5845947 5.43501438 -19.98012722 4.62310073 -18.375 3.8125 C-17.48167969 3.36003906 -16.58835938 2.90757812 -15.66796875 2.44140625 C-10.37547043 -0.10065987 -5.76072565 0.03158726 0 0 Z " fill="#F4CE56" transform="translate(247.1875,211.75)"/>
<path d="M0 0 C0.9910524 -0.00953201 1.9821048 -0.01906403 3.00318909 -0.02888489 C4.59863808 -0.02751778 4.59863808 -0.02751778 6.22631836 -0.02612305 C7.32334579 -0.03040817 8.42037323 -0.0346933 9.55064392 -0.03910828 C11.86806549 -0.04484801 14.18550507 -0.04535447 16.50292969 -0.04101562 C20.05621857 -0.03785065 23.60867899 -0.06133745 27.16186523 -0.08666992 C29.41251522 -0.08894237 31.66316746 -0.08964667 33.91381836 -0.08862305 C34.97947525 -0.09783279 36.04513214 -0.10704254 37.14308167 -0.11653137 C38.1309819 -0.11030258 39.11888214 -0.10407379 40.13671875 -0.09765625 C41.44099571 -0.09860039 41.44099571 -0.09860039 42.7716217 -0.0995636 C45.46944077 0.35275022 46.39660576 1.09181328 48.00366211 3.2746582 C47.69726562 5.21899414 47.69726562 5.21899414 47.00366211 7.2746582 C46.93439243 10.03436228 46.90948851 12.76661862 46.94116211 15.5246582 C46.94567383 16.26973633 46.95018555 17.01481445 46.95483398 17.7824707 C46.96656965 19.61323461 46.98450361 21.44395693 47.00366211 23.2746582 C44.57322072 19.62899612 44.74055519 16.91829078 44.81616211 12.7121582 C44.81680664 12.02702148 44.81745117 11.34188477 44.81811523 10.63598633 C44.86298248 5.55601747 44.86298248 5.55601747 46.00366211 3.2746582 C29.17366211 3.2746582 12.34366211 3.2746582 -4.99633789 3.2746582 C-5.63426726 7.74016377 -6.12370119 11.4881119 -6.12915039 15.8918457 C-6.13108398 17.42131836 -6.13108398 17.42131836 -6.13305664 18.98168945 C-6.12918945 20.02711914 -6.12532227 21.07254883 -6.12133789 22.1496582 C-6.12520508 23.18735352 -6.12907227 24.22504883 -6.13305664 25.29418945 C-6.12539423 31.37047811 -5.78875102 37.24980285 -4.99633789 43.2746582 C-5.65633789 42.9446582 -6.31633789 42.6146582 -6.99633789 42.2746582 C-8.67403369 36.88306364 -9.23742807 32.16984044 -9.19165039 26.4934082 C-9.1888205 25.79445435 -9.1859906 25.09550049 -9.18307495 24.37536621 C-9.17201059 22.17494504 -9.14693395 19.97495327 -9.12133789 17.7746582 C-9.11129024 16.26945581 -9.10216754 14.76424694 -9.09399414 13.2590332 C-9.07211682 9.59743882 -9.03768485 5.93609052 -8.99633789 2.2746582 C-5.87643049 0.45780795 -3.59412307 0.01902709 0 0 Z " fill="#DFC774" transform="translate(160.996337890625,309.725341796875)"/>
<path d="M0 0 C4.58577088 -0.02510318 9.17149999 -0.04304634 13.75732422 -0.05493164 C15.31071674 -0.05989711 16.86410475 -0.06667173 18.41748047 -0.07543945 C28.33540944 -0.12993357 38.11294335 0.12037921 48 1 C48 1.66 48 2.32 48 3 C49.65 3.33 51.3 3.66 53 4 C53.495 5.485 53.495 5.485 54 7 C52.74832031 6.71125 51.49664062 6.4225 50.20703125 6.125 C24.06590726 0.51316226 -3.68786385 0.85854454 -29 10 C-29.89074219 10.3196875 -30.78148437 10.639375 -31.69921875 10.96875 C-37.43244578 13.14614709 -42.72065188 15.88850014 -48 19 C-47.67 17.68 -47.34 16.36 -47 15 C-46.01 15 -45.02 15 -44 15 C-44 14.34 -44 13.68 -44 13 C-41.38618481 10.28163221 -40.08945057 10.00447253 -36.25 9.8125 C-35.1775 9.874375 -34.105 9.93625 -33 10 C-33.33 9.01 -33.66 8.02 -34 7 C-29.545 6.505 -29.545 6.505 -25 6 C-25 5.34 -25 4.68 -25 4 C-16.61090382 2.7472283 -8.50262969 1.63988863 0 2 C0 1.34 0 0.68 0 0 Z " fill="#DEC97E" transform="translate(240,165)"/>
<path d="M0 0 C1.65 0 3.3 0 5 0 C2.99478238 2.59935618 1.01141103 4.98918955 -1.375 7.25 C-14.2079826 20.69407701 -18.20609813 37.70492789 -18.375 55.75 C-18.38893799 56.7080957 -18.40287598 57.66619141 -18.41723633 58.65332031 C-18.35605454 67.86713817 -15.79482745 75.68752083 -12 84 C-12.99 84 -13.98 84 -15 84 C-15.495 81.03 -15.495 81.03 -16 78 C-16.99 77.67 -17.98 77.34 -19 77 C-19 75.35 -19 73.7 -19 72 C-19.66 72 -20.32 72 -21 72 C-22.0743765 64.39797232 -22.02608616 57.03848241 -21.75 49.375 C-21.72292969 48.18648437 -21.69585937 46.99796875 -21.66796875 45.7734375 C-21.44776315 39.40878546 -20.95183718 34.65023379 -18 29 C-17.23237808 26.68291902 -16.53152359 24.35733031 -15.84375 22.015625 C-14.89880271 19.75825091 -13.75990275 18.6689517 -12 17 C-10.95377125 15.02379014 -9.94560065 13.0262871 -9 11 C-8.34 11 -7.68 11 -7 11 C-7 9.68 -7 8.36 -7 7 C-5.625 5.25 -5.625 5.25 -4 4 C-3.34 4 -2.68 4 -2 4 C-1.34 2.68 -0.68 1.36 0 0 Z " fill="#EBCF67" transform="translate(187,184)"/>
<path d="M0 0 C16.83 0 33.66 0 51 0 C51 5.61 51 11.22 51 17 C51.66 18.65 52.32 20.3 53 22 C52.01 22.495 52.01 22.495 51 23 C49 22 49 22 47.8125 20.0625 C46.62940059 15.6031253 47.35035179 11.52120038 48 7 C47.34 6.67 46.68 6.34 46 6 C46.33 4.68 46.66 3.36 47 2 C32.15 1.67 17.3 1.34 2 1 C1.05314627 6.6811224 0.80763231 11.83955701 0.8125 17.5625 C0.8137085 19.02490112 0.8137085 19.02490112 0.81494141 20.5168457 C0.63525702 33.34053833 0.63525702 33.34053833 5 45 C4.625 47.1875 4.625 47.1875 4 49 C3.36351028 47.69303325 2.74160139 46.37896647 2.125 45.0625 C1.77695313 44.33160156 1.42890625 43.60070312 1.0703125 42.84765625 C-1.91155277 34.9141534 -2.31275358 27.29443815 -2.25 18.875 C-2.25773438 17.82957031 -2.26546875 16.78414063 -2.2734375 15.70703125 C-2.27085937 14.68738281 -2.26828125 13.66773438 -2.265625 12.6171875 C-2.26336914 11.70565918 -2.26111328 10.79413086 -2.25878906 9.85498047 C-2 7 -2 7 0 0 Z " fill="#251805" transform="translate(156,313)"/>
<path d="M0 0 C1.89492187 0.01353516 1.89492187 0.01353516 3.828125 0.02734375 C4.79234375 0.03894531 5.7565625 0.05054687 6.75 0.0625 C7.08 1.0525 7.41 2.0425 7.75 3.0625 C7.09 2.8975 6.43 2.7325 5.75 2.5625 C0.86508698 1.74834783 -3.42999091 1.29405172 -8.0625 3.25 C-11.17193832 5.82639175 -13.00162111 8.12635114 -13.5302124 12.24679565 C-13.64730794 14.96974686 -13.66564981 17.67690453 -13.6484375 20.40234375 C-13.65130768 21.40205704 -13.65417786 22.40177032 -13.65713501 23.43177795 C-13.65917303 25.54233365 -13.65366153 27.65290835 -13.64111328 29.76342773 C-13.62507321 32.98529557 -13.64096259 36.20590574 -13.66015625 39.42773438 C-13.65817344 41.48177359 -13.65432899 43.53581203 -13.6484375 45.58984375 C-13.65451019 46.54938461 -13.66058289 47.50892548 -13.6668396 48.49754333 C-13.61168398 53.77230567 -13.21074168 57.50574057 -10.25 62.0625 C-6.19402085 65.86498045 -1.73318138 65.31368469 3.51953125 65.16796875 C4.25558594 65.13316406 4.99164063 65.09835938 5.75 65.0625 C5.75 65.7225 5.75 66.3825 5.75 67.0625 C1.79232188 68.07203712 -1.4033667 68.02883879 -5.4375 67.4375 C-6.48292969 67.30085938 -7.52835938 67.16421875 -8.60546875 67.0234375 C-9.91451172 66.54777344 -9.91451172 66.54777344 -11.25 66.0625 C-12.42578125 63.5390625 -12.42578125 63.5390625 -13.25 61.0625 C-14.24 60.7325 -15.23 60.4025 -16.25 60.0625 C-16.30078155 52.90921058 -16.33576793 45.75596781 -16.35986328 38.60253906 C-16.36991013 36.1699042 -16.38354994 33.73728138 -16.40087891 31.3046875 C-16.42518467 27.80465723 -16.43649644 24.30478688 -16.4453125 20.8046875 C-16.45563507 19.72009247 -16.46595764 18.63549744 -16.47659302 17.51803589 C-16.47736486 12.30328401 -16.37305726 7.93304313 -14.25 3.0625 C-13.26 3.0625 -12.27 3.0625 -11.25 3.0625 C-11.25 2.4025 -11.25 1.7425 -11.25 1.0625 C-7.49600202 -0.1414337 -3.91782588 -0.03627617 0 0 Z " fill="#E5CC89" transform="translate(250.25,75.9375)"/>
<path d="M0 0 C0.87398437 0.39832031 1.74796875 0.79664063 2.6484375 1.20703125 C27.36418658 12.06034995 55.59360197 10.2574058 82 8 C81.67 8.66 81.34 9.32 81 10 C71.36773397 13.04590771 60.52152085 12.30566076 50.53491211 12.26074219 C47.67605706 12.24995683 44.81782118 12.26072178 41.95898438 12.2734375 C40.12239446 12.27211687 38.28580493 12.26955647 36.44921875 12.265625 C35.60429367 12.26967346 34.75936859 12.27372192 33.88883972 12.27789307 C28.86890506 12.23841345 24.7658434 11.58302523 20 10 C18.56566144 9.69316357 17.12843428 9.3991972 15.6875 9.125 C10.66872487 8.0193146 5.4165251 6.68146167 1 4 C0.21875 1.8671875 0.21875 1.8671875 0 0 Z " fill="#E6CF6F" transform="translate(175,377)"/>
<path d="M0 0 C11.63382019 6.72703888 17.10379804 15.2191534 21 28 C21.67415422 30.79649157 21.86040204 33.06844276 22 36 C22.061875 36.83144531 22.12375 37.66289062 22.1875 38.51953125 C22.60312959 48.01406979 20.27552765 56.85725497 18 66 C17.67 66 17.34 66 17 66 C16.79656186 60.25852364 16.92000455 54.89346745 18.0625 49.25 C19.77481333 39.86896913 19.75596844 29.4780307 15 21 C14.34 21 13.68 21 13 21 C13 18.36 13 15.72 13 13 C12.38125 12.731875 11.7625 12.46375 11.125 12.1875 C9 11 9 11 7 8 C6.01 7.67 5.02 7.34 4 7 C0 2.54285714 0 2.54285714 0 0 Z " fill="#372806" transform="translate(303,176)"/>
<path d="M0 0 C1.1902327 -0.01703979 1.1902327 -0.01703979 2.4045105 -0.03442383 C3.47808556 -0.05321594 3.47808556 -0.05321594 4.573349 -0.0723877 C7.7910551 0.1360872 9.96773308 1.23148725 12.57614136 3.05737305 C13.45114136 5.24487305 13.45114136 5.24487305 13.57614136 7.05737305 C14.23614136 7.05737305 14.89614136 7.05737305 15.57614136 7.05737305 C16.07114136 10.02737305 16.07114136 10.02737305 16.57614136 13.05737305 C17.23614136 13.05737305 17.89614136 13.05737305 18.57614136 13.05737305 C17.91614136 16.02737305 17.25614136 18.99737305 16.57614136 22.05737305 C15.91614136 21.72737305 15.25614136 21.39737305 14.57614136 21.05737305 C14.66315308 20.18725586 14.66315308 20.18725586 14.75192261 19.29956055 C15.0032169 14.94857929 15.07069589 12.00757058 12.20114136 8.55737305 C8.75303199 5.27345937 7.28772009 4.93171061 2.66744995 4.85205078 C1.64654266 4.83210556 0.62563538 4.81216034 -0.4262085 4.79161072 C-1.53144867 4.77489822 -2.63668884 4.75818573 -3.77542114 4.7409668 C-4.90458954 4.7201857 -6.03375793 4.6994046 -7.19714355 4.67799377 C-10.81431836 4.6124597 -14.43156745 4.55359531 -18.04885864 4.49487305 C-20.49678308 4.4516915 -22.94469993 4.40807734 -25.39260864 4.36401367 C-31.40294614 4.25677438 -37.41335799 4.15501518 -43.42385864 4.05737305 C-43.42385864 3.72737305 -43.42385864 3.39737305 -43.42385864 3.05737305 C-41.77385864 2.72737305 -40.12385864 2.39737305 -38.42385864 2.05737305 C-38.42385864 1.72737305 -38.42385864 1.39737305 -38.42385864 1.05737305 C-33.46174642 0.91331049 -28.49958897 0.77095988 -23.53738403 0.63012695 C-21.85280056 0.58208352 -20.16822987 0.53358977 -18.4836731 0.48461914 C-16.04840342 0.41390612 -13.61309087 0.34486655 -11.17776489 0.27612305 C-10.43676041 0.25424927 -9.69575592 0.23237549 -8.93229675 0.20983887 C-5.95511195 0.12706122 -2.9774839 0.07047743 0 0 Z " fill="#B49B53" transform="translate(402.4238586425781,216.942626953125)"/>
<path d="M0 0 C1.04143158 -0.00630432 2.08286316 -0.01260864 3.15585327 -0.019104 C4.83561752 -0.01303131 4.83561752 -0.01303131 6.54931641 -0.00683594 C7.70581696 -0.00874939 8.8623175 -0.01066284 10.05386353 -0.01263428 C12.49994118 -0.0139951 14.94602607 -0.01030585 17.39208984 -0.00195312 C21.12956052 0.00872814 24.86654839 -0.00184219 28.60400391 -0.01464844 C30.98160913 -0.01332644 33.35921406 -0.01076323 35.73681641 -0.00683594 C36.85261078 -0.0108844 37.96840515 -0.01493286 39.11801147 -0.019104 C44.38525122 0.01258945 48.86099339 0.10832644 53.77587891 2.25878906 C54.27087891 4.73378906 54.27087891 4.73378906 54.77587891 7.25878906 C53.86974854 6.61047119 52.96361816 5.96215332 52.0300293 5.29418945 C46.83337104 2.34505114 41.54836077 2.66615934 35.70947266 2.69238281 C34.55721695 2.68618423 33.40496124 2.67998566 32.2177887 2.67359924 C29.7896509 2.66651611 27.36146439 2.6696486 24.93334961 2.68237305 C21.2217481 2.69625775 17.51265918 2.66211796 13.80126953 2.62402344 C11.43733662 2.62307237 9.07340057 2.62493041 6.70947266 2.62988281 C5.60308945 2.6166246 4.49670624 2.60336639 3.35679626 2.58970642 C-3.25143365 2.6171066 -3.25143365 2.6171066 -8.9074707 5.6730957 C-12.07448517 9.20790972 -12.34604183 10.748972 -12.28662109 15.38378906 C-12.27308594 16.74890625 -12.27308594 16.74890625 -12.25927734 18.14160156 C-12.24767578 18.84027344 -12.23607422 19.53894531 -12.22412109 20.25878906 C-12.88412109 20.25878906 -13.54412109 20.25878906 -14.22412109 20.25878906 C-15.50730002 16.4092523 -15.29055747 13.31140771 -15.22412109 9.25878906 C-14.56412109 9.25878906 -13.90412109 9.25878906 -13.22412109 9.25878906 C-13.22412109 8.26878906 -13.22412109 7.27878906 -13.22412109 6.25878906 C-12.56412109 6.25878906 -11.90412109 6.25878906 -11.22412109 6.25878906 C-10.97662109 5.64003906 -10.72912109 5.02128906 -10.47412109 4.38378906 C-8.03638698 0.23964108 -4.52074138 0.00786536 0 0 Z " fill="#B29D62" transform="translate(95.22412109375,218.7412109375)"/>
<path d="M0 0 C0 0.33 0 0.66 0 1 C-4.93657074 1.150927 -9.13808056 0.60637631 -13.9375 -0.5 C-22.834327 -2.29584294 -31.77500172 -2.34174751 -40.8125 -2.375 C-41.89070511 -2.38623901 -41.89070511 -2.38623901 -42.99069214 -2.39770508 C-45.06324233 -2.41543914 -47.13446492 -2.41087993 -49.20703125 -2.3984375 C-51.02424683 -2.39336182 -51.02424683 -2.39336182 -52.87817383 -2.38818359 C-56.26316434 -1.96727682 -57.4775718 -1.18908327 -60 1 C-62.578125 1.51171875 -62.578125 1.51171875 -65.25 1.6875 C-66.14203125 1.75324219 -67.0340625 1.81898438 -67.953125 1.88671875 C-68.62859375 1.92410156 -69.3040625 1.96148437 -70 2 C-70.66 0.68 -71.32 -0.64 -72 -2 C-47.72734019 -7.07821525 -23.94867968 -6.30669811 0 0 Z " fill="#2F230B" transform="translate(296,172)"/>
<path d="M0 0 C0.33 0 0.66 0 1 0 C0.67 2.97 0.34 5.94 0 9 C4.51659796 9.02496844 9.03315791 9.04298537 13.54980469 9.05493164 C15.08203838 9.05991896 16.61426742 9.06671122 18.14648438 9.07543945 C32.29455698 10.38550952 32.29455698 10.38550952 44.63232422 6.45727539 C45.30932373 5.73592407 45.30932373 5.73592407 46 5 C46.66 5 47.32 5 48 5 C47.34 7.31 46.68 9.62 46 12 C29.17 12 12.34 12 -5 12 C-3.38748923 7.96872308 -1.719106 3.98520027 0 0 Z " fill="#433106" transform="translate(272,237)"/>
<path d="M0 0 C5.82746337 2.97086368 9.98938779 5.97877558 13 12 C13.5268604 19.63947581 12.00142016 24.88013917 7.875 31.3125 C1.33156293 37.42919117 -6.93425901 37.47630311 -15.5 37.375 C-16.48097656 37.38660156 -17.46195313 37.39820313 -18.47265625 37.41015625 C-25.28731742 37.3829339 -32.93162541 37.06837459 -38 32 C-37.01 31.67 -36.02 31.34 -35 31 C-34.34 31.33 -33.68 31.66 -33 32 C-33 32.66 -33 33.32 -33 34 C-22.3727934 35.7712011 -10.33207324 36.32727782 0 33 C0.76376953 32.22076172 0.76376953 32.22076172 1.54296875 31.42578125 C3 30 3 30 6 30 C6.433125 29.1028125 6.433125 29.1028125 6.875 28.1875 C8 26 8 26 10 23 C11.08678473 16.47929161 9.52666882 12.40021163 6 7 C6 6.34 6 5.68 6 5 C5.195625 4.731875 4.39125 4.46375 3.5625 4.1875 C2.2940625 3.5996875 2.2940625 3.5996875 1 3 C0.505 1.515 0.505 1.515 0 0 Z " fill="#DCC879" transform="translate(249,305)"/>
<path d="M0 0 C1.07911652 0.02502594 2.15823303 0.05005188 3.27005005 0.07583618 C6.70380368 0.15775729 10.13695808 0.25445558 13.5703125 0.3515625 C15.90362166 0.40983049 18.23695513 0.46713314 20.5703125 0.5234375 C26.278975 0.66329453 31.98721748 0.81527361 37.6953125 0.9765625 C37.6953125 1.3065625 37.6953125 1.6365625 37.6953125 1.9765625 C37.09920166 1.97798752 36.50309082 1.97941254 35.88891602 1.98088074 C29.65871753 2.00063738 23.42949095 2.0550385 17.19970703 2.12915039 C14.87783797 2.15228173 12.55586471 2.16671462 10.23388672 2.17211914 C6.88703844 2.18144384 3.5418182 2.22251446 0.1953125 2.26953125 C-1.35047485 2.26363228 -1.35047485 2.26363228 -2.92749023 2.25761414 C-9.42518849 2.38779904 -14.45726838 3.38550097 -19.3046875 7.9765625 C-21.93226637 12.40677727 -21.52794963 16.07477639 -20.3046875 20.9765625 C-18.14143016 24.43777424 -17.18243957 25.68397848 -13.3046875 26.9765625 C-13.3046875 27.6365625 -13.3046875 28.2965625 -13.3046875 28.9765625 C-15.9446875 28.6465625 -18.5846875 28.3165625 -21.3046875 27.9765625 C-23.8255133 22.19967004 -25.21333731 17.30216308 -24.3046875 10.9765625 C-22.8046875 7.4140625 -22.8046875 7.4140625 -21.3046875 4.9765625 C-20.3146875 4.9765625 -19.3246875 4.9765625 -18.3046875 4.9765625 C-17.9746875 3.9865625 -17.6446875 2.9965625 -17.3046875 1.9765625 C-11.81015968 -0.79632356 -5.98182161 -0.18503463 0 0 Z " fill="#E3CA77" transform="translate(370.3046875,218.0234375)"/>
<path d="M0 0 C1.03253906 0.02707031 1.03253906 0.02707031 2.0859375 0.0546875 C3.7662381 0.10136252 5.44581163 0.17309061 7.125 0.25 C7.455 1.57 7.785 2.89 8.125 4.25 C7.609375 4.085 7.09375 3.92 6.5625 3.75 C0.49101125 2.50456641 -3.741636 3.29399268 -9.17578125 5.984375 C-11.26853215 7.5431136 -11.95812071 8.82004404 -12.875 11.25 C-13.32240786 15.87321457 -13.39249201 18.21501599 -11.3125 22.375 C-8.45193884 25.74899521 -5.3347555 28.50940716 -1.875 31.25 C-3.195 31.58 -4.515 31.91 -5.875 32.25 C-6.4525 31.46625 -7.03 30.6825 -7.625 29.875 C-9.59972742 27.1886763 -9.59972742 27.1886763 -12 26.3125 C-13.875 25.25 -13.875 25.25 -15.0625 22.875 C-16.22080563 17.70717486 -16.55045504 12.52812601 -16.875 7.25 C-15.885 6.92 -14.895 6.59 -13.875 6.25 C-13.875 5.59 -13.875 4.93 -13.875 4.25 C-9.34920184 0.44325388 -5.74038719 -0.28924432 0 0 Z " fill="#DEC56B" transform="translate(140.875,116.75)"/>
<path d="M0 0 C0 0.33 0 0.66 0 1 C-12.99001736 3.53463753 -25.73829964 4.30970108 -38.9375 4.3125 C-39.67763336 4.31572266 -40.41776672 4.31894531 -41.18032837 4.32226562 C-50.97788645 4.34829304 -60.32439631 3.67574895 -70 2 C-70 1.67 -70 1.34 -70 1 C-69.41721283 1.00222061 -68.83442566 1.00444122 -68.23397827 1.00672913 C-62.10065329 1.02906453 -55.96734008 1.04402285 -49.83398438 1.05493164 C-47.55305511 1.05992238 -45.27212898 1.06671733 -42.99121094 1.07543945 C-26.40374834 1.18115871 -26.40374834 1.18115871 -9.85400391 0.21655273 C-6.56151828 -0.0332706 -3.30066412 -0.03265184 0 0 Z " fill="#372807" transform="translate(264,383)"/>
<path d="M0 0 C3.9151161 1.48504404 5.28043507 3.20431597 7 7 C7.44183253 10.44722726 7.4203623 13.86821778 7.3984375 17.33984375 C7.40274277 18.83941368 7.40274277 18.83941368 7.40713501 20.36927795 C7.40917303 22.47983365 7.40366153 24.59040835 7.39111328 26.70092773 C7.37507321 29.92279557 7.39096259 33.14340574 7.41015625 36.36523438 C7.40817344 38.41927359 7.40432899 40.47331203 7.3984375 42.52734375 C7.40754654 43.96665504 7.40754654 43.96665504 7.4168396 45.43504333 C7.36149089 50.72827241 6.90175435 54.38610492 4 59 C3.375 57.3125 3.375 57.3125 3 55 C3.32129883 54.31494385 3.64259766 53.6298877 3.97363281 52.92407227 C5.40123494 48.85690036 5.1792705 45.17518464 5.046875 40.90234375 C5.02659241 40.03106339 5.00630981 39.15978302 4.9854126 38.26210022 C4.93995635 36.42549308 4.88920573 34.58901028 4.83349609 32.75268555 C4.75019316 29.94401273 4.68837985 27.13543916 4.62890625 24.32617188 C4.58201499 22.5390283 4.53388007 20.75191683 4.484375 18.96484375 C4.46654968 18.12622299 4.44872437 17.28760223 4.43035889 16.42356873 C4.40403381 15.63917923 4.37770874 14.85478973 4.35058594 14.04663086 C4.33122986 13.35999863 4.31187378 12.67336639 4.29193115 11.96592712 C3.95155244 9.6737437 3.12611249 8.01148988 2 6 C1.01 6.33 0.02 6.66 -1 7 C-1 6.01 -1 5.02 -1 4 C-0.34 4 0.32 4 1 4 C0.67 2.68 0.34 1.36 0 0 Z " fill="#0D0100" transform="translate(257,79)"/>
<path d="M0 0 C0 0.99 0 1.98 0 3 C-3.07098462 4.53549231 -6.29580377 4.4426817 -9.6875 4.71875 C-12.02268455 4.87136047 -12.02268455 4.87136047 -14 6 C-16.1570922 6.09779802 -18.31725542 6.13077514 -20.4765625 6.1328125 C-21.78753906 6.13410156 -23.09851563 6.13539063 -24.44921875 6.13671875 C-25.47861572 6.13357666 -25.47861572 6.13357666 -26.52880859 6.13037109 C-28.59610523 6.12507404 -30.66317936 6.13029092 -32.73046875 6.13671875 C-46.3545546 6.12340097 -46.3545546 6.12340097 -52 5 C-52.33 4.34 -52.66 3.68 -53 3 C-52.39500671 2.99191315 -51.79001343 2.98382629 -51.16668701 2.97549438 C-44.87246604 2.88946741 -38.57856068 2.78996444 -32.28466797 2.68261719 C-29.93543801 2.64432334 -27.58614934 2.60947121 -25.23681641 2.578125 C-21.86078906 2.53248373 -18.48516609 2.47448701 -15.109375 2.4140625 C-14.05820496 2.40251129 -13.00703491 2.39096008 -11.92401123 2.37905884 C-10.45293915 2.3492543 -10.45293915 2.3492543 -8.95214844 2.31884766 C-8.09055115 2.30552399 -7.22895386 2.29220032 -6.34124756 2.2784729 C-3.83204596 1.98002319 -2.17274086 1.2596594 0 0 Z " fill="#EDCF5F" transform="translate(412,244)"/>
<path d="M0 0 C2.475 0.99 2.475 0.99 5 2 C5 2.66 5 3.32 5 4 C5.99 4.33 6.98 4.66 8 5 C9.16796875 6.7421875 9.16796875 6.7421875 10.1875 8.875 C10.53167969 9.57367188 10.87585938 10.27234375 11.23046875 10.9921875 C12 13 12 13 12 16 C12.99 16 13.98 16 15 16 C15.07347656 17.15628906 15.07347656 17.15628906 15.1484375 18.3359375 C15.22320312 19.33882812 15.29796875 20.34171875 15.375 21.375 C15.44460938 22.37273437 15.51421875 23.37046875 15.5859375 24.3984375 C15.76363964 27.15508879 15.76363964 27.15508879 18 29 C18.1875 32.5625 18.1875 32.5625 18 36 C17.67 36.33 17.34 36.66 17 37 C16.70356264 38.55587743 16.46219106 40.12235187 16.24609375 41.69140625 C16.11396484 42.63564453 15.98183594 43.57988281 15.84570312 44.55273438 C15.71099609 45.54595703 15.57628906 46.53917969 15.4375 47.5625 C15.22963867 49.05813477 15.22963867 49.05813477 15.01757812 50.58398438 C14.67464094 53.05549716 14.33562546 55.52748545 14 58 C12.515 58.495 12.515 58.495 11 59 C11.2165625 58.05640625 11.433125 57.1128125 11.65625 56.140625 C15.37809603 38.9787794 15.25904043 23.47520372 6 8 C4.11203594 5.23212509 2.13869662 2.5785704 0 0 Z " fill="#E5C959" transform="translate(310,180)"/>
<path d="M0 0 C1.65 0 3.3 0 5 0 C2.99478238 2.59935618 1.01141103 4.98918955 -1.375 7.25 C-11.26689079 17.61293321 -15.51183392 30.14314015 -18 44 C-18.33 44 -18.66 44 -19 44 C-19.61619926 35.4587936 -18.36027891 27.91182726 -15 20 C-13.46875 18.32421875 -13.46875 18.32421875 -12 17 C-10.95377125 15.02379014 -9.94560065 13.0262871 -9 11 C-8.34 11 -7.68 11 -7 11 C-7 9.68 -7 8.36 -7 7 C-5.625 5.25 -5.625 5.25 -4 4 C-3.34 4 -2.68 4 -2 4 C-1.34 2.68 -0.68 1.36 0 0 Z " fill="#D9C378" transform="translate(187,184)"/>
<path d="M0 0 C0.66 1.32 1.32 2.64 2 4 C1.34 3.835 0.68 3.67 0 3.5 C-6.22206864 2.46298856 -11.13970335 2.65588134 -17 5 C-17 5.66 -17 6.32 -17 7 C-18.45117188 8.44750977 -18.45117188 8.44750977 -20.46875 10.12890625 C-24.94337451 13.93371814 -29.22854495 17.90730306 -33.5 21.9375 C-34.22703125 22.62134766 -34.9540625 23.30519531 -35.703125 24.00976562 C-37.46991714 25.67194507 -39.23552048 27.33536639 -41 29 C-41.33 27.68 -41.66 26.36 -42 25 C-41.43410156 24.59007812 -40.86820312 24.18015625 -40.28515625 23.7578125 C-39.55167969 23.21898437 -38.81820313 22.68015625 -38.0625 22.125 C-36.96615234 21.32449219 -36.96615234 21.32449219 -35.84765625 20.5078125 C-33.88901765 19.11987896 -33.88901765 19.11987896 -33 17 C-32.01 17 -31.02 17 -30 17 C-30 16.34 -30 15.68 -30 15 C-29.34 15 -28.68 15 -28 15 C-28 14.34 -28 13.68 -28 13 C-27.34 13 -26.68 13 -26 13 C-26 12.01 -26 11.02 -26 10 C-24.34467377 8.98133771 -22.67739862 7.98189187 -21 7 C-20.67 6.01 -20.34 5.02 -20 4 C-19.34 4 -18.68 4 -18 4 C-18 3.34 -18 2.68 -18 2 C-12.12116651 -0.61281488 -6.29268272 -0.18328202 0 0 Z " fill="#E2C974" transform="translate(366,117)"/>
<path d="M0 0 C15.84 0.33 31.68 0.66 48 1 C48 1.33 48 1.66 48 2 C39.0129799 3.84781799 30.40721544 4.24926284 21.25 4.125 C19.96867187 4.11597656 18.68734375 4.10695312 17.3671875 4.09765625 C14.24458779 4.07435327 11.12239975 4.04164054 8 4 C8 3.67 8 3.34 8 3 C5.36 2.67 2.72 2.34 0 2 C0 1.34 0 0.68 0 0 Z " fill="#EED05F" transform="translate(90,246)"/>
<path d="M0 0 C1.66611905 -0.042721 3.33382885 -0.04063832 5 0 C5.33 0.33 5.66 0.66 6 1 C8.98303139 1.06397257 11.94356338 1.06613597 14.92578125 1.02734375 C16.77278456 1.0146934 18.61978987 1.00233274 20.46679688 0.99023438 C23.38995533 0.96543063 26.31301109 0.93749415 29.23608398 0.90405273 C32.04932309 0.87383867 34.86243155 0.8560674 37.67578125 0.83984375 C38.54882401 0.82638412 39.42186676 0.8129245 40.32136536 0.79905701 C41.13868637 0.79567825 41.95600739 0.7922995 42.7980957 0.78881836 C43.51455765 0.78136093 44.23101959 0.7739035 44.9691925 0.76622009 C47.32850648 1.03781659 48.94769152 1.8343257 51 3 C48.59711573 4.20144213 47.08160248 4.13312026 44.3984375 4.14526367 C42.96685303 4.15483345 42.96685303 4.15483345 41.50634766 4.16459656 C40.47300293 4.16570938 39.4396582 4.1668222 38.375 4.16796875 C36.78824463 4.17296135 36.78824463 4.17296135 35.16943359 4.17805481 C32.93001745 4.18312356 30.69059375 4.18546315 28.45117188 4.18530273 C25.01419734 4.18749096 21.57754276 4.20565216 18.140625 4.22460938 C15.9687511 4.22754288 13.79687567 4.22952796 11.625 4.23046875 C10.07498291 4.24124702 10.07498291 4.24124702 8.49365234 4.25224304 C7.06206787 4.2476281 7.06206787 4.2476281 5.6015625 4.24291992 C4.33820068 4.24505745 4.33820068 4.24505745 3.04931641 4.24723816 C1 4 1 4 -1 2 C-0.67 1.34 -0.34 0.68 0 0 Z " fill="#382606" transform="translate(91,243)"/>
<path d="M0 0 C0.66 0.33 1.32 0.66 2 1 C2 1.66 2 2.32 2 3 C4.68191384 3.89397128 6.31080048 4.1411455 9.0690918 4.18945312 C10.29132698 4.21452942 10.29132698 4.21452942 11.53825378 4.2401123 C12.85543144 4.26047546 12.85543144 4.26047546 14.19921875 4.28125 C15.10823441 4.29965942 16.01725006 4.31806885 16.95381165 4.33703613 C19.8649752 4.39578735 22.77619884 4.44854914 25.6875 4.5 C29.50401844 4.56806692 33.320369 4.64186572 37.13671875 4.71875 C38.00471603 4.73232544 38.87271332 4.74590088 39.76701355 4.7598877 C44.91636927 4.86353101 49.90017995 5.27287363 55 6 C55 6.33 55 6.66 55 7 C48.29231072 7.07628074 41.58473399 7.12869663 34.87670898 7.16479492 C32.59639302 7.17984918 30.31610586 7.20029708 28.03588867 7.22631836 C24.75171791 7.26284894 21.46793115 7.27976039 18.18359375 7.29296875 C17.16978134 7.30845261 16.15596893 7.32393646 15.11143494 7.33988953 C9.29889315 7.34126082 5.09071178 6.90406311 0 4 C-0.66 3.01 -1.32 2.02 -2 1 C-1.34 0.67 -0.68 0.34 0 0 Z " fill="#3E2C06" transform="translate(353,240)"/>
<path d="M0 0 C3.33316277 -0.08811914 6.66602047 -0.14076197 10 -0.1875 C10.93457031 -0.21263672 11.86914062 -0.23777344 12.83203125 -0.26367188 C20.26180295 -0.34160654 26.01897933 0.47261291 31.875 5.4375 C36.9252999 11.52756752 36.61893023 17.30088303 36 25 C35.000247 29.03325011 33.28067548 32.34421509 30 35 C30.33 32.69 30.66 30.38 31 28 C31.99 27.67 32.98 27.34 34 27 C34.02703381 25.06257659 34.04641125 23.12504521 34.0625 21.1875 C34.07410156 20.10855469 34.08570313 19.02960938 34.09765625 17.91796875 C34.13624766 14.93487831 34.13624766 14.93487831 33 12 C32.34 11.67 31.68 11.34 31 11 C30.7525 10.195625 30.505 9.39125 30.25 8.5625 C29.19044598 5.67628816 29.19044598 5.67628816 25.875 4.6875 C24.92625 4.460625 23.9775 4.23375 23 4 C23 3.34 23 2.68 23 2 C11.615 1.505 11.615 1.505 0 1 C0 0.67 0 0.34 0 0 Z " fill="#D9C166" transform="translate(237,212)"/>
<path d="M0 0 C4.58577088 -0.02510318 9.17149999 -0.04304634 13.75732422 -0.05493164 C15.31071674 -0.05989711 16.86410475 -0.06667173 18.41748047 -0.07543945 C28.33540944 -0.12993357 38.11294335 0.12037921 48 1 C48 1.66 48 2.32 48 3 C50.475 3.495 50.475 3.495 53 4 C53.495 5.485 53.495 5.485 54 7 C46.74 5.68 39.48 4.36 32 3 C32 2.34 32 1.68 32 1 C21.44 1 10.88 1 0 1 C0 0.67 0 0.34 0 0 Z " fill="#DFC56C" transform="translate(240,165)"/>
<path d="M0 0 C-0.66 0.99 -1.32 1.98 -2 3 C-4.37915039 3.29296875 -4.37915039 3.29296875 -7.34765625 3.1875 C-8.42853516 3.16429687 -9.50941406 3.14109375 -10.62304688 3.1171875 C-12.88870377 3.03999306 -15.15432995 2.96189075 -17.41992188 2.8828125 C-24.35317352 2.73520927 -29.55871991 3.38259095 -36 6 C-36.66 5.34 -37.32 4.68 -38 4 C-27.67040658 -3.3306792 -11.95596409 -1.99266068 0 0 Z " fill="#1C1303" transform="translate(264,210)"/>
<path d="M0 0 C3.14735717 0.27654417 6.29241854 0.5737556 9.4375 0.875 C10.33533203 0.95363281 11.23316406 1.03226563 12.15820312 1.11328125 C13.01220703 1.19707031 13.86621094 1.28085938 14.74609375 1.3671875 C15.53685303 1.44050293 16.3276123 1.51381836 17.14233398 1.58935547 C17.75536377 1.72486816 18.36839355 1.86038086 19 2 C19.33 2.66 19.66 3.32 20 4 C23.67132288 4.72290997 27.32995433 5.26013961 31.03515625 5.76757812 C36.15114295 6.52783559 40.33345415 7.754303 45 10 C41.71064864 11.07325267 39.49670899 10.89993958 36.140625 10.14453125 C35.19662842 9.93610596 34.25263184 9.72768066 33.2800293 9.51293945 C32.28011963 9.28179443 31.28020996 9.05064941 30.25 8.8125 C29.22753174 8.58199951 28.20506348 8.35149902 27.15161133 8.11401367 C24.0983518 7.42060205 21.04885605 6.71249615 18 6 C17.13874512 5.80148438 16.27749023 5.60296875 15.39013672 5.3984375 C2.3852784 2.3852784 2.3852784 2.3852784 0 0 Z " fill="#D7C16E" transform="translate(228,249)"/>
<path d="M0 0 C-1.12672879 3.38018638 -2.48086363 4.5572011 -5 7 C-7.00667234 10.01000852 -7.25491971 10.63492456 -7.31884766 14.01245117 C-7.33871735 14.81305466 -7.35858704 15.61365814 -7.37905884 16.43852234 C-7.39061005 17.29798965 -7.40216125 18.15745697 -7.4140625 19.04296875 C-7.43342865 19.9265657 -7.4527948 20.81016266 -7.4727478 21.72053528 C-7.53252805 24.54275866 -7.57892266 27.36502286 -7.625 30.1875 C-7.66318122 32.10092925 -7.70223304 34.01434133 -7.7421875 35.92773438 C-7.83822832 40.61835021 -7.9222651 45.30904652 -8 50 C-7.01 50 -6.02 50 -5 50 C-5.33 52.97 -5.66 55.94 -6 59 C-8.94344723 56.05655277 -9.12754531 53.51307809 -9.17700195 49.53198242 C-9.18983719 48.63062057 -9.20267242 47.72925873 -9.21589661 46.80058289 C-9.22328354 45.82869522 -9.23067047 44.85680756 -9.23828125 43.85546875 C-9.246353 42.85292557 -9.25442474 41.85038239 -9.26274109 40.81745911 C-9.27657363 38.69497402 -9.2872995 36.57246676 -9.29516602 34.44995117 C-9.31237862 31.21034439 -9.35627275 27.97175825 -9.40039062 24.73242188 C-9.41051787 22.66927833 -9.41903387 20.60612612 -9.42578125 18.54296875 C-9.44328934 17.57715378 -9.46079742 16.61133881 -9.47883606 15.61625671 C-9.46049249 9.90534483 -8.92027853 6.47392763 -5 2 C-2 0 -2 0 0 0 Z " fill="#110602" transform="translate(245,78)"/>
<path d="M0 0 C0.33 0 0.66 0 1 0 C1.01981934 0.589021 1.03963867 1.17804199 1.06005859 1.78491211 C1.15643277 4.50282351 1.26564712 7.22008103 1.375 9.9375 C1.4059375 10.86369141 1.436875 11.78988281 1.46875 12.74414062 C1.69006479 18.00036689 2.23958748 22.8796413 3.57226562 27.97460938 C4.28250642 31.33771306 4.12452504 34.57556153 4 38 C3.01 38.495 3.01 38.495 2 39 C-0.69426685 31.6161646 -1.41367821 25.07586436 -1.25 17.25 C-1.24484375 16.24839844 -1.2396875 15.24679688 -1.234375 14.21484375 C-1.18312311 9.37794698 -1.00222284 4.75247607 0 0 Z " fill="#2D240D" transform="translate(169,222)"/>
<path d="M0 0 C3.09313271 0.7677989 4.85084275 2.44220141 7.203125 4.546875 C8.9665625 5.2584375 8.9665625 5.2584375 10.765625 5.984375 C14.54461943 7.70209974 16.03661051 9.04712082 18.203125 12.546875 C18.953125 15.359375 18.953125 15.359375 19.203125 17.546875 C18.543125 17.876875 17.883125 18.206875 17.203125 18.546875 C16.72875 17.680625 16.254375 16.814375 15.765625 15.921875 C9.94977387 7.36915275 -0.42898269 4.55845916 -9.796875 1.546875 C-6.02720226 -0.96624016 -4.32591446 -0.58609164 0 0 Z " fill="#302608" transform="translate(243.796875,298.453125)"/>
<path d="M0 0 C5 5 5 5 7.1875 7.375 C11.13297064 11.05743926 15.53136226 13.98909263 20 17 C17.3333581 18.33332095 15.83319697 17.67102033 13 17 C12.67 16.01 12.34 15.02 12 14 C11.01 14 10.02 14 9 14 C8.01 15.485 8.01 15.485 7 17 C6.01 17 5.02 17 4 17 C4.061875 16.0925 4.12375 15.185 4.1875 14.25 C3.97733563 10.60715088 3.26407976 9.71689572 1 7 C0.65772583 5.66893378 0.32248257 4.33599921 0 3 C-0.66 2.67 -1.32 2.34 -2 2 C-1.34 1.34 -0.68 0.68 0 0 Z " fill="#EECB5E" transform="translate(175,268)"/>
<path d="M0 0 C3 1 3 1 4.25 3.0625 C5.29499577 7.15540011 4.8703625 9.84904041 4 14 C2.4375 16 2.4375 16 1 17 C-1 15 -1 15 -3 12 C-2.54420906 7.89788153 -1.1624537 3.95234259 0 0 Z " fill="#120904" transform="translate(180,151)"/>
<path d="M0 0 C0.66 0.33 1.32 0.66 2 1 C2 2.32 2 3.64 2 5 C2.66 5 3.32 5 4 5 C4.48937429 6.32962072 4.96583581 7.66399425 5.4375 9 C5.70433594 9.7425 5.97117187 10.485 6.24609375 11.25 C8.33519512 18.87034904 7.987979 26.18487997 7.5625 34 C7.51029297 35.06089844 7.45808594 36.12179687 7.40429688 37.21484375 C7.27569454 39.81027275 7.14078533 42.40520818 7 45 C6.67 45 6.34 45 6 45 C5.9906543 44.30551758 5.98130859 43.61103516 5.97167969 42.89550781 C6.08710353 23.32568071 6.08710353 23.32568071 -0.6328125 5.328125 C-2 3 -2 3 -2 1 C-1.34 0.67 -0.68 0.34 0 0 Z " fill="#E6C968" transform="translate(307,282)"/>
<path d="M0 0 C7.03051093 3.19426332 12.3156261 8.99814594 17 15 C16.01 15.495 16.01 15.495 15 16 C15 15.34 15 14.68 15 14 C13.02 14.33 11.04 14.66 9 15 C7.57055055 12.64561267 6.91338739 11.51967567 7.375 8.75 C7.684375 7.88375 7.684375 7.88375 8 7 C7.01 6.67 6.02 6.34 5 6 C5 5.34 5 4.68 5 4 C4.01 4.495 4.01 4.495 3 5 C2.67 5.99 2.34 6.98 2 8 C1.01 7.67 0.02 7.34 -1 7 C-0.67 4.69 -0.34 2.38 0 0 Z " fill="#110802" transform="translate(146,120)"/>
<path d="M0 0 C0.66 0.66 1.32 1.32 2 2 C1.01 2.33 0.02 2.66 -1 3 C-2.06716704 4.79932579 -2.06716704 4.79932579 -3 7 C-3.53625 7.78375 -4.0725 8.5675 -4.625 9.375 C-6.33466222 12.63890061 -6.51086318 14.35097728 -6 18 C-4.83842737 20.49411267 -3.48997952 22.671907 -2 25 C-2.99 25.33 -3.98 25.66 -5 26 C-7.89448633 22.61014856 -10.02634106 19.74090451 -9.95703125 15.16015625 C-9.18521178 10.8368066 -8.2939031 6.79143229 -6 3 C-4 2.375 -4 2.375 -2 2 C-1.34 1.34 -0.68 0.68 0 0 Z " fill="#E3CA71" transform="translate(322,145)"/>
<path d="M0 0 C1.50196206 4.50588619 0.91068324 8.93941888 0.7421875 13.65234375 C1.01962949 17.25488591 1.66645009 18.36712039 4 21 C4 21.66 4 22.32 4 23 C6.475 23.99 6.475 23.99 9 25 C4.82412255 26.39195915 2.86525224 24.82323219 -1 23 C-0.67 21.68 -0.34 20.36 0 19 C-0.66 19 -1.32 19 -2 19 C-4.74848174 13.50303652 -2.65925911 6.5633982 -1 1 C-0.67 0.67 -0.34 0.34 0 0 Z " fill="#2D2107" transform="translate(219,224)"/>
<path d="M0 0 C0 0.66 0 1.32 0 2 C-0.99 2.495 -0.99 2.495 -2 3 C-2.4125 3.70125 -2.825 4.4025 -3.25 5.125 C-4.71919342 7.53867491 -6.11926614 9.30805486 -8 11.375 C-10.9429285 14.70592653 -12.4725052 17.84181972 -14 22 C-15.32 21.67 -16.64 21.34 -18 21 C-7.22695035 0 -7.22695035 0 0 0 Z " fill="#211B09" transform="translate(192,186)"/>
<path d="M0 0 C2.01852818 1.85704592 2.94813241 3.2991225 3.15234375 6.05859375 C2.76718775 11.91494005 1.29384114 15.00572917 -3 19 C-5.3125 19.875 -5.3125 19.875 -7 20 C-6.1875 16.5625 -6.1875 16.5625 -5 13 C-4.01 12.67 -3.02 12.34 -2 12 C-2 11.34 -2 10.68 -2 10 C-1.34 10 -0.68 10 0 10 C-0.08378906 9.36191406 -0.16757813 8.72382813 -0.25390625 8.06640625 C-0.40666016 6.82697266 -0.40666016 6.82697266 -0.5625 5.5625 C-0.66691406 4.73878906 -0.77132812 3.91507813 -0.87890625 3.06640625 C-0.91886719 2.38449219 -0.95882812 1.70257813 -1 1 C-0.67 0.67 -0.34 0.34 0 0 Z " fill="#1F1105" transform="translate(149,226)"/>
<path d="M0 0 C1.32 0.66 2.64 1.32 4 2 C2.77023437 3.12148437 2.77023437 3.12148437 1.515625 4.265625 C0.42703861 5.26036773 -0.66150055 6.25516213 -1.75 7.25 C-2.55824219 7.98669922 -2.55824219 7.98669922 -3.3828125 8.73828125 C-5.74352546 10.89746993 -8.04829709 13.05029559 -10.265625 15.359375 C-12 17 -12 17 -14 17 C-14 15.68 -14 14.36 -14 13 C-12.25 11.296875 -12.25 11.296875 -10 9.75 C-9.2575 9.22921875 -8.515 8.7084375 -7.75 8.171875 C-7.1725 7.78515625 -6.595 7.3984375 -6 7 C-6.66 6.34 -7.32 5.68 -8 5 C-7.67 4.34 -7.34 3.68 -7 3 C-4.67843403 2.59270772 -2.3431213 2.25561323 0 2 C0 1.34 0 0.68 0 0 Z " fill="#1B1004" transform="translate(362,143)"/>
<path d="M0 0 C9.50718989 0.92005063 17.84154838 1.77859096 26 7 C27.32646156 7.6802367 28.65608877 8.35492261 30 9 C26.1533093 10.46482631 23.70949572 9.48428033 19.921875 8.12890625 C18.76171875 7.71962891 17.6015625 7.31035156 16.40625 6.88867188 C15.1996875 6.45103516 13.993125 6.01339844 12.75 5.5625 C11.52796875 5.12873047 10.3059375 4.69496094 9.046875 4.24804688 C6.02772395 3.17483303 3.01245444 2.09184062 0 1 C0 0.67 0 0.34 0 0 Z " fill="#2F2105" transform="translate(204,289)"/>
<path d="M0 0 C11.76727736 0.41727934 21.66653819 3.43582826 32 9 C32 9.33 32 9.66 32 10 C28.18391108 10.24916044 26.42941678 9.87357065 23.375 7.625 C16.17425877 3.27993734 7.18848234 3.55811629 -1 3 C-0.67 2.01 -0.34 1.02 0 0 Z " fill="#2E1F09" transform="translate(254,257)"/>
<path d="M0 0 C0 0.66 0 1.32 0 2 C-2.31 2.33 -4.62 2.66 -7 3 C-7 2.01 -7 1.02 -7 0 C-8.32 0 -9.64 0 -11 0 C-11 0.66 -11 1.32 -11 2 C-13.64 2.33 -16.28 2.66 -19 3 C-19.33 3.99 -19.66 4.98 -20 6 C-20.66 6 -21.32 6 -22 6 C-22.33 5.01 -22.66 4.02 -23 3 C-14.74250628 -1.65210914 -9.21223717 -3.59501938 0 0 Z " fill="#EFCC5E" transform="translate(247,215)"/>
<path d="M0 0 C1.10102197 3.30306592 0.95067299 4.71585695 0 8 C-3.23454438 9.61727219 -6.75700353 9.5898474 -10.3125 9.875 C-11.07240234 9.96007812 -11.83230469 10.04515625 -12.61523438 10.1328125 C-16.93889417 10.46337902 -18.45293135 10.41433954 -22.04296875 7.6953125 C-24 5 -24 5 -24 2 C-23.53851563 2.37253906 -23.07703125 2.74507812 -22.6015625 3.12890625 C-18.62657938 6.01194737 -15.79336326 7.42094293 -10.8125 7.0625 C-6.59602705 6.38786433 -3.98132325 5.17366669 -1 2 C-0.67 1.34 -0.34 0.68 0 0 Z " fill="#E3C564" transform="translate(183,165)"/>
<path d="M0 0 C-4.53868069 4.53868069 -17.35277134 3.18270084 -23.359375 3.1953125 C-27.15647837 3.18925267 -30.95305839 3.15887844 -34.75 3.125 C-36.71874544 3.11494876 -38.68749586 3.10582671 -40.65625 3.09765625 C-45.43762471 3.07581575 -50.21875632 3.04140432 -55 3 C-55 2.67 -55 2.34 -55 2 C-53.9169458 1.98018066 -52.8338916 1.96036133 -51.71801758 1.93994141 C-47.63805771 1.86294647 -43.55841178 1.77438773 -39.47875977 1.68261719 C-37.72459178 1.64471007 -35.97035611 1.60979627 -34.21606445 1.578125 C-24.83759669 1.40677989 -15.76756554 1.11971684 -6.5378418 -0.68212891 C-4.00608764 -0.99923751 -2.39774203 -0.80549423 0 0 Z " fill="#E6CD5A" transform="translate(257,386)"/>
<path d="M0 0 C0.66 0 1.32 0 2 0 C1.65954675 8.49430869 -0.25658428 15.973914 -3 24 C-3.66 23.34 -4.32 22.68 -5 22 C-4.67 21.34 -4.34 20.68 -4 20 C-4.03174385 18.12422721 -4.09973098 16.24898715 -4.1875 14.375 C-4.26639229 8.42221789 -3.09578408 5.03064913 0 0 Z " fill="#271903" transform="translate(310,325)"/>
<path d="M0 0 C7.11561322 4.11447023 13.80543285 9.19705802 16.8125 17.1484375 C16.874375 17.75945312 16.93625 18.37046875 17 19 C16.34 19.66 15.68 20.32 15 21 C14.34 21 13.68 21 13 21 C13 18.36 13 15.72 13 13 C12.38125 12.731875 11.7625 12.46375 11.125 12.1875 C9 11 9 11 7 8 C6.01 7.67 5.02 7.34 4 7 C0 2.54285714 0 2.54285714 0 0 Z " fill="#312309" transform="translate(303,176)"/>
<path d="M0 0 C6.510703 5.47490934 12.74987827 11.23223578 19 17 C17.15625 17.64453125 17.15625 17.64453125 15 18 C12.5 15.6875 12.5 15.6875 10 13 C7.83379456 11.70480005 7.83379456 11.70480005 6 11 C6.33 10.01 6.66 9.02 7 8 C6.21625 7.79375 5.4325 7.5875 4.625 7.375 C2 6 2 6 0.6875 2.875 C0.460625 1.92625 0.23375 0.9775 0 0 Z " fill="#DEC361" transform="translate(139,149)"/>
<path d="M0 0 C4.44112385 4.44112385 5.17717943 11.51314989 5.29296875 17.5703125 C5.27340756 19.42210542 5.23820006 21.27379792 5.1875 23.125 C5.17396484 24.08148438 5.16042969 25.03796875 5.14648438 26.0234375 C5.11159222 28.3495811 5.06258339 30.6744653 5 33 C2.83073341 29.74610012 2.75919951 28.86604043 2.8046875 25.11328125 C2.81113281 24.17548828 2.81757813 23.23769531 2.82421875 22.27148438 C2.84097656 21.29501953 2.85773438 20.31855469 2.875 19.3125 C2.88402344 18.32443359 2.89304687 17.33636719 2.90234375 16.31835938 C2.9259157 13.87866235 2.95881978 11.43945303 3 9 C2.01 8.67 1.02 8.34 0 8 C0 5.36 0 2.72 0 0 Z " fill="#3B2A05" transform="translate(308,290)"/>
<path d="M0 0 C-5.28146469 4.52696974 -8.99208297 6.32594963 -16 6 C-16.66 4.68 -17.32 3.36 -18 2 C-11.88019467 0.59545452 -6.28260706 -0.23268915 0 0 Z " fill="#272115" transform="translate(242,168)"/>
<path d="M0 0 C0.33 1.32 0.66 2.64 1 4 C0.484375 3.835 -0.03125 3.67 -0.5625 3.5 C-6.61542046 2.25837529 -10.92169027 2.94394046 -16.265625 5.84375 C-18.38914937 7.25943291 -19.73531712 8.78680496 -21 11 C-20.66915024 7.2503694 -19.54056443 4.05607565 -17.07421875 1.16015625 C-12.2306441 -1.54896177 -5.39708846 -0.36659469 0 0 Z " fill="#E4CA78" transform="translate(148,117)"/>
<path d="M0 0 C0.99 0.99 1.98 1.98 3 3 C2.3125 4.9375 2.3125 4.9375 1 7 C-0.66321482 7.35015049 -2.33034549 7.68197057 -4 8 C-4.66 8.66 -5.32 9.32 -6 10 C-8.32825843 12.32825843 -9.78406045 12.64267338 -13 13 C-9.0580583 8.11950075 -4.88049925 3.9419417 0 0 Z " fill="#E8CA5C" transform="translate(365,145)"/>
<path d="M0 0 C2.42680576 2.42680576 2.25539311 3.03180116 2.2746582 6.35449219 C2.28419022 7.25592957 2.29372223 8.15736694 2.30354309 9.08612061 C2.30263168 10.06316956 2.30172028 11.04021851 2.30078125 12.046875 C2.30506638 13.05083313 2.3093515 14.05479126 2.31376648 15.08917236 C2.31951816 17.21764369 2.32000391 19.34613468 2.31567383 21.47460938 C2.31252616 24.72300118 2.33592012 27.97047171 2.36132812 31.21875 C2.36360233 33.28645719 2.36430405 35.35416682 2.36328125 37.421875 C2.372491 38.39082703 2.38170074 39.35977905 2.39118958 40.35809326 C2.35490409 45.68281996 1.92976301 49.3615717 -1 54 C-1.625 52.3125 -1.625 52.3125 -2 50 C-1.6817627 49.34040283 -1.36352539 48.68080566 -1.03564453 48.0012207 C0.49358464 43.56962849 0.24543358 39.32201645 0.1953125 34.66796875 C0.19106766 33.18034782 0.19106766 33.18034782 0.18673706 31.66267395 C0.17556804 28.50415841 0.15046927 25.34592943 0.125 22.1875 C0.11496597 20.04232181 0.10584086 17.89713917 0.09765625 15.75195312 C0.07563945 10.50120479 0.04219443 5.25062287 0 0 Z " fill="#1E0B00" transform="translate(262,84)"/>
<path d="M0 0 C0.99 0 1.98 0 3 0 C3.0505916 6.65686814 3.0856876 13.31368694 3.10986328 19.97070312 C3.11993859 22.23667249 3.13359918 24.50262881 3.15087891 26.76855469 C3.17506011 30.02021501 3.18646763 33.27170387 3.1953125 36.5234375 C3.20563507 37.54118256 3.21595764 38.55892761 3.22659302 39.60751343 C3.22674408 40.54833771 3.22689514 41.48916199 3.22705078 42.45849609 C3.231492 43.28900482 3.23593323 44.11951355 3.24050903 44.97518921 C3 47 3 47 1 49 C0.67 32.83 0.34 16.66 0 0 Z " fill="#E5CE78" transform="translate(263,84)"/>
<path d="M0 0 C5.82746337 2.97086368 9.98938779 5.97877558 13 12 C13.28125389 17.53132651 12.74733614 21.75799157 11 27 C10.13554988 24.07670683 9.98837882 21.71737087 10.1875 18.6875 C10.27792255 13.70603975 8.6889181 11.11740584 6 7 C6 6.34 6 5.68 6 5 C5.195625 4.731875 4.39125 4.46375 3.5625 4.1875 C2.716875 3.795625 1.87125 3.40375 1 3 C0.67 2.01 0.34 1.02 0 0 Z " fill="#CBBA77" transform="translate(249,305)"/>
<path d="M0 0 C8.58 2.64 17.16 5.28 26 8 C26 8.33 26 8.66 26 9 C24.37509046 9.02698189 22.75005367 9.04638757 21.125 9.0625 C19.76761719 9.07990234 19.76761719 9.07990234 18.3828125 9.09765625 C16 9 16 9 14 8 C14 7.34 14 6.68 14 6 C13.00419922 5.92652344 13.00419922 5.92652344 11.98828125 5.8515625 C3.21792619 5.10896309 3.21792619 5.10896309 -1 3 C-0.67 2.01 -0.34 1.02 0 0 Z " fill="#E1C366" transform="translate(214,293)"/>
<path d="M0 0 C0.33 0 0.66 0 1 0 C1.03738281 1.25554687 1.07476562 2.51109375 1.11328125 3.8046875 C1.53213448 16.67530309 1.53213448 16.67530309 5 29 C5.28488281 29.70898438 5.56976563 30.41796875 5.86328125 31.1484375 C6.54338609 32.77939981 7.26614415 34.39250623 8 36 C7.01 36 6.02 36 5 36 C4.67 34.02 4.34 32.04 4 30 C3.01 29.67 2.02 29.34 1 29 C0.1589522 25.3535194 -0.11764968 22.00049093 -0.09765625 18.26171875 C-0.09443359 17.19501953 -0.09121094 16.12832031 -0.08789062 15.02929688 C-0.07951172 13.92650391 -0.07113281 12.82371094 -0.0625 11.6875 C-0.05798828 10.56537109 -0.05347656 9.44324219 -0.04882812 8.28710938 C-0.03707313 5.5246849 -0.02064077 2.76237002 0 0 Z " fill="#E2CC7E" transform="translate(167,232)"/>
<path d="M0 0 C0.99 0.66 1.98 1.32 3 2 C5.41150258 2.31662439 5.41150258 2.31662439 8 2.25 C9.299375 2.25773438 9.299375 2.25773438 10.625 2.265625 C13.265795 2.15414552 13.265795 2.15414552 16 0 C16.33 0.99 16.66 1.98 17 3 C12.02675508 6.06045841 7.7173379 6.96817665 2 6 C-0.34831738 4.89067216 -1.97091499 3.66489026 -4 2 C-2.68 1.34 -1.36 0.68 0 0 Z " fill="#201003" transform="translate(243,136)"/>
<path d="M0 0 C0.33 0.66 0.66 1.32 1 2 C-0.125 5 -0.125 5 -2 8 C-2.845625 8.33 -3.69125 8.66 -4.5625 9 C-7.35259609 9.80956294 -7.35259609 9.80956294 -8.3125 13.125 C-8.539375 14.07375 -8.76625 15.0225 -9 16 C-12.65456815 16.75241109 -16.31733897 17.40049704 -20 18 C-17.97021926 16.47422802 -15.93757318 14.95442034 -13.88671875 13.45703125 C-8.55071158 9.46687314 -4.18475844 5.18048875 0 0 Z " fill="#DFC25E" transform="translate(300,360)"/>
<path d="M0 0 C0 0.99 0 1.98 0 3 C-1.66666667 4.66666667 -3.33333333 6.33333333 -5 8 C-5.495 9.03125 -5.99 10.0625 -6.5 11.125 C-8.24692254 14.4732682 -9.71530278 15.27553396 -13 17 C-14.75149165 18.58245275 -14.75149165 18.58245275 -16 20 C-16 15.11781987 -15.2599812 14.50447979 -12 11 C-9.99852198 9.17898312 -7.96342223 7.40624512 -5.90625 5.6484375 C-3.83599452 3.85817559 -1.89524622 1.97421482 0 0 Z " fill="#170D07" transform="translate(333,137)"/>
<path d="M0 0 C1.85987296 2.30269985 3.15418411 4.34341007 4.375 7.0625 C6.32477839 10.5870994 7.22693677 11.58510129 11 13 C14.68143643 13.23365958 18.31699946 13.17415239 22 13 C22 13.66 22 14.32 22 15 C18.04232188 16.00953712 14.8466333 15.96633879 10.8125 15.375 C9.76707031 15.23835937 8.72164062 15.10171875 7.64453125 14.9609375 C6.77183594 14.64382812 5.89914063 14.32671875 5 14 C3.82421875 11.4765625 3.82421875 11.4765625 3 9 C2.01 8.67 1.02 8.34 0 8 C0 5.36 0 2.72 0 0 Z " fill="#E0C46B" transform="translate(234,128)"/>
<path d="M0 0 C-0.33 0.66 -0.66 1.32 -1 2 C0.32 2.33 1.64 2.66 3 3 C3.33 4.65 3.66 6.3 4 8 C0.78147169 7.36934243 -1.50801069 6.21979305 -4.25 4.4375 C-4.95640625 3.98246094 -5.6628125 3.52742188 -6.390625 3.05859375 C-7.18726563 2.53458984 -7.18726563 2.53458984 -8 2 C-7.67 1.34 -7.34 0.68 -7 0 C-2.52459016 -1.26229508 -2.52459016 -1.26229508 0 0 Z " fill="#22190B" transform="translate(178,372)"/>
<path d="M0 0 C-14.59681093 7.66742597 -14.59681093 7.66742597 -22 9 C-22 8.01 -22 7.02 -22 6 C-21.19949219 5.74476563 -21.19949219 5.74476563 -20.3828125 5.484375 C-15.18474828 3.79365515 -10.17171185 1.86570233 -5.1640625 -0.328125 C-3 -1 -3 -1 0 0 Z " fill="#332002" transform="translate(287,374)"/>
<path d="M0 0 C4.9723422 1.49170266 9.41845739 3.60457417 14 6 C14 6.99 14 7.98 14 9 C15.65 9.33 17.3 9.66 19 10 C19 10.66 19 11.32 19 12 C14.31901072 10.65254881 10.71395856 8.72776271 6.6875 6 C5.63949219 5.29875 4.59148437 4.5975 3.51171875 3.875 C1 2 1 2 0 0 Z " fill="#2C2007" transform="translate(184,277)"/>
<path d="M0 0 C6.90627103 3.99342203 11.47024827 8.44569685 16 15 C15.01 15.33 14.02 15.66 13 16 C13 15.01 13 14.02 13 13 C12.360625 12.731875 11.72125 12.46375 11.0625 12.1875 C9 11 9 11 8 8 C6.35 8 4.7 8 3 8 C1.92474806 5.34771188 0.90543849 2.71631546 0 0 Z " fill="#352909" transform="translate(289,268)"/>
<path d="M0 0 C1.76462683 3.08809695 2 4.23312136 2 8 C3.65 8.33 5.3 8.66 7 9 C7 10.32 7 11.64 7 13 C7.66 13 8.32 13 9 13 C8.34 14.32 7.68 15.64 7 17 C6.01830524 15.87720538 5.03972702 14.75168527 4.0625 13.625 C3.51722656 12.99851563 2.97195312 12.37203125 2.41015625 11.7265625 C-0.69491869 7.92478099 -0.07670627 4.75578891 0 0 Z " fill="#1F1207" transform="translate(127,128)"/>
<path d="M0 0 C6.16861436 6.16861436 6.16861436 6.16861436 6.25 10.3125 C6.27578125 11.09238281 6.3015625 11.87226563 6.328125 12.67578125 C5.92811663 15.50917385 4.85455823 16.86725804 3 19 C3.03480469 18.22914063 3.06960938 17.45828125 3.10546875 16.6640625 C3.13253906 15.66117188 3.15960938 14.65828125 3.1875 13.625 C3.22230469 12.62726563 3.25710938 11.62953125 3.29296875 10.6015625 C3.19628906 9.74304688 3.09960938 8.88453125 3 8 C2.01 7.34 1.02 6.68 0 6 C0 4 0 2 0 0 Z " fill="#2A1907" transform="translate(367,121)"/>
<path d="M0 0 C1.89492187 0.01353516 1.89492187 0.01353516 3.828125 0.02734375 C4.79234375 0.03894531 5.7565625 0.05054687 6.75 0.0625 C7.08 1.0525 7.41 2.0425 7.75 3.0625 C7.09 2.8975 6.43 2.7325 5.75 2.5625 C0.78050381 1.73425064 -3.49664066 1.22393684 -8.125 3.4375 C-10.30919833 5.03358919 -10.30919833 5.03358919 -12.25 7.0625 C-12.91 5.7425 -13.57 4.4225 -14.25 3.0625 C-13.26 3.0625 -12.27 3.0625 -11.25 3.0625 C-11.25 2.4025 -11.25 1.7425 -11.25 1.0625 C-7.49600202 -0.1414337 -3.91782588 -0.03627617 0 0 Z " fill="#D5BF72" transform="translate(250.25,75.9375)"/>
<path d="M0 0 C2.66666667 1.33333333 5.33333333 2.66666667 8 4 C7.67 5.65 7.34 7.3 7 9 C7.99 9 8.98 9 10 9 C10 10.65 10 12.3 10 14 C5.7850053 10.14629056 2.75158756 6.01140202 0 1 C0 0.67 0 0.34 0 0 Z " fill="#281C07" transform="translate(172,262)"/>
<path d="M0 0 C5.55709684 -0.34731855 10.04404364 0.33226673 15 3 C17 5.1875 17 5.1875 18 7 C17.67 7.66 17.34 8.32 17 9 C15.62437146 7.71034824 14.29233607 6.37310707 13 5 C13 4.34 13 3.68 13 3 C8.71 3 4.42 3 0 3 C0 2.01 0 1.02 0 0 Z " fill="#ECCF66" transform="translate(244,73)"/>
<path d="M0 0 C0.33 0.66 0.66 1.32 1 2 C3.02463255 2.65213292 3.02463255 2.65213292 5 3 C5.33 4.98 5.66 6.96 6 9 C6.66 9 7.32 9 8 9 C7.34 11.97 6.68 14.94 6 18 C5.34 17.67 4.68 17.34 4 17 C4.05800781 16.43152344 4.11601562 15.86304688 4.17578125 15.27734375 C4.5546903 8.79258598 3.19279864 5.9265384 -1 1 C-0.67 0.67 -0.34 0.34 0 0 Z " fill="#DEC561" transform="translate(413,221)"/>
<path d="M0 0 C0.66 0.66 1.32 1.32 2 2 C1.23570339 3.44098611 0.46327445 4.87766054 -0.3125 6.3125 C-0.95638672 7.51326172 -0.95638672 7.51326172 -1.61328125 8.73828125 C-2.90059554 10.83787272 -4.18406708 12.35447721 -6 14 C-6 12.68 -6 11.36 -6 10 C-5.34 10 -4.68 10 -4 10 C-4.33 9.21625 -4.66 8.4325 -5 7.625 C-6 5 -6 5 -6 3 C-4.35 3 -2.7 3 -1 3 C-0.67 2.01 -0.34 1.02 0 0 Z " fill="#271C04" transform="translate(304,349)"/>
<path d="M0 0 C3.86624652 1.51888256 5.90549839 3.40942582 8 7 C8.3294285 10.36120019 8.23524914 13.63463035 8 17 C7.34 16.67 6.68 16.34 6 16 C5.896875 14.80375 5.79375 13.6075 5.6875 12.375 C5.2240049 7.42808111 3.0509615 4.83325932 0 1 C0 0.67 0 0.34 0 0 Z " fill="#E9CC6A" transform="translate(367,119)"/>
<path d="M0 0 C2.4175348 0.95618914 4.83403266 1.91486511 7.25 2.875 C7.93191406 3.14441406 8.61382812 3.41382813 9.31640625 3.69140625 C12.61520973 5.0045222 15.86212936 6.33401714 19 8 C12.47136468 8.48360262 6.63728227 7.5603888 1 4 C0.21484375 1.859375 0.21484375 1.859375 0 0 Z " fill="#DDC562" transform="translate(175,377)"/>
<path d="M0 0 C2.4491066 3.6736599 4.47299761 7.51977555 6.5625 11.40625 C8.01714051 14.11436645 8.01714051 14.11436645 10 17 C9.01 17 8.02 17 7 17 C4.64276511 14.46815512 4 13.52809907 4 10 C3.01 9.67 2.02 9.34 1 9 C-0.45007937 6.31735316 -1.11784055 4.72668339 -0.625 1.6875 C-0.41875 1.130625 -0.2125 0.57375 0 0 Z " fill="#D1BB6C" transform="translate(156,353)"/>
<path d="M0 0 C0.66 0 1.32 0 2 0 C0.4561393 3.83333593 -1.92456277 5.98308208 -5 8.6875 C-5.886875 9.47511719 -6.77375 10.26273438 -7.6875 11.07421875 C-10 13 -10 13 -12 14 C-11.9375 11.8125 -11.9375 11.8125 -11 9 C-9.28561215 7.51728618 -7.51127281 6.31959171 -5.59375 5.11328125 C-3.83938228 4.07639069 -3.83938228 4.07639069 -3 2 C-2.01 2 -1.02 2 0 2 C0 1.34 0 0.68 0 0 Z " fill="#D1C078" transform="translate(336,132)"/>
<path d="M0 0 C3.34218632 -0.37992882 4.66954796 -0.23536171 7.45703125 1.75 C8.23433594 2.4925 9.01164062 3.235 9.8125 4 C10.60269531 4.7425 11.39289063 5.485 12.20703125 6.25 C13.09455078 7.11625 13.09455078 7.11625 14 8 C13.67 8.99 13.34 9.98 13 11 C12.56429688 10.61328125 12.12859375 10.2265625 11.6796875 9.828125 C8.74229013 7.2594918 5.84286844 4.80917028 2.5625 2.6875 C1.716875 2.130625 0.87125 1.57375 0 1 C0 0.67 0 0.34 0 0 Z " fill="#DFC66D" transform="translate(288,267)"/>
<path d="M0 0 C9.59453303 0.59453303 9.59453303 0.59453303 13 4 C12.67 4.99 12.34 5.98 12 7 C8.04 5.02 4.08 3.04 0 1 C0 0.67 0 0.34 0 0 Z " fill="#DBC563" transform="translate(275,260)"/>
<path d="M0 0 C0.66 0.66 1.32 1.32 2 2 C1.175 2.78375 0.35 3.5675 -0.5 4.375 C-3.64132688 8.05610418 -3.41677566 11.35503149 -3.17578125 16.0234375 C-3.11777344 16.67570312 -3.05976562 17.32796875 -3 18 C-3.66 18 -4.32 18 -5 18 C-6.28317892 14.15046324 -6.06643637 11.05261865 -6 7 C-5.34 7 -4.68 7 -4 7 C-4 6.01 -4 5.02 -4 4 C-3.34 4 -2.68 4 -2 4 C-1.34 2.68 -0.68 1.36 0 0 Z " fill="#D5BE77" transform="translate(86,221)"/>
<path d="M0 0 C0.68707555 2.49064888 1 4.37886292 1 7 C0.34 7.66 -0.32 8.32 -1 9 C-3.31 6.69 -5.62 4.38 -8 2 C-5.33333333 1.33333333 -2.66666667 0.66666667 0 0 Z " fill="#EBCB65" transform="translate(159,121)"/>
<path d="M0 0 C0.33 0 0.66 0 1 0 C1.02578125 0.88042969 1.0515625 1.76085937 1.078125 2.66796875 C1.13484375 3.82941406 1.1915625 4.99085938 1.25 6.1875 C1.29640625 7.33605469 1.3428125 8.48460937 1.390625 9.66796875 C2.09945132 13.5437947 3.27678578 15.20224525 6 18 C6.99 18.66 7.98 19.32 9 20 C9 20.66 9 21.32 9 22 C5.29244252 20.97012292 2.79316647 19.51729018 0.71484375 16.1953125 C-0.95827541 11.05709957 -0.26298544 5.33276041 0 0 Z " fill="#DAC369" transform="translate(219,227)"/>
<path d="M0 0 C6.55187638 1.3598234 6.55187638 1.3598234 8.75 4.5 C9.36875 5.7375 9.36875 5.7375 10 7 C10.99 7.66 11.98 8.32 13 9 C12.34 9.66 11.68 10.32 11 11 C9.16365304 9.35742342 7.3308593 7.71117305 5.5 6.0625 C4.97535156 5.59392578 4.45070312 5.12535156 3.91015625 4.64257812 C2.5878256 3.44904592 1.29166061 2.22665821 0 1 C0 0.67 0 0.34 0 0 Z " fill="#1D0F04" transform="translate(143,152)"/>
<path d="M0 0 C3.81684226 1.55500981 6.19195732 4.03595495 9 7 C7.68 6.67 6.36 6.34 5 6 C5 5.34 5 4.68 5 4 C4.01 4.495 4.01 4.495 3 5 C2.67 5.99 2.34 6.98 2 8 C1.01 7.67 0.02 7.34 -1 7 C-0.67 4.69 -0.34 2.38 0 0 Z " fill="#161105" transform="translate(146,120)"/>
<path d="M0 0 C3.82669043 3.42388092 5.72278474 6.00724943 7 11 C6.01 11.495 6.01 11.495 5 12 C4.401875 11.0925 3.80375 10.185 3.1875 9.25 C1.51893234 6.77098519 -0.17936855 4.36682089 -2 2 C-1.34 1.34 -0.68 0.68 0 0 Z " fill="#201903" transform="translate(256,305)"/>
<path d="M0 0 C3.07692308 5.41538462 3.07692308 5.41538462 2.6875 8.375 C2.460625 8.91125 2.23375 9.4475 2 10 C1.773125 9.21625 1.54625 8.4325 1.3125 7.625 C0.23553696 4.79728463 0.23553696 4.79728463 -2.5 3.8125 C-3.325 3.544375 -4.15 3.27625 -5 3 C-5.66 2.34 -6.32 1.68 -7 1 C-4.53721199 -0.231394 -2.7204945 -0.07159196 0 0 Z " fill="#291D0B" transform="translate(269,212)"/>
<path d="M0 0 C2.3125 0.125 2.3125 0.125 5 1 C7.77483693 4.69978257 8.17306006 7.41347711 7.6875 11.875 C7.47604997 13.25283571 7.25284448 14.62915645 7 16 C6.34 16 5.68 16 5 16 C5.04125 14.783125 5.0825 13.56625 5.125 12.3125 C5.11707102 7.82469851 4.44082771 4.60707706 1.375 1.1875 C0.92125 0.795625 0.4675 0.40375 0 0 Z " fill="#DBC369" transform="translate(179,149)"/>
<path d="M0 0 C0.33 0 0.66 0 1 0 C1.42499026 6.94150757 1.08252413 12.46080562 -3.6875 17.9375 C-4.120625 18.288125 -4.55375 18.63875 -5 19 C-4.67 16.69 -4.34 14.38 -4 12 C-3.01 11.67 -2.02 11.34 -1 11 C-0.67 7.37 -0.34 3.74 0 0 Z " fill="#D9C581" transform="translate(272,228)"/>
<path d="M0 0 C2.475 0.99 2.475 0.99 5 2 C5 2.66 5 3.32 5 4 C5.99 4.33 6.98 4.66 8 5 C9.203125 6.7421875 9.203125 6.7421875 10.25 8.875 C10.78367187 9.92300781 10.78367187 9.92300781 11.328125 10.9921875 C12 13 12 13 11 16 C10.54109375 15.26394531 10.0821875 14.52789062 9.609375 13.76953125 C8.99578125 12.79371094 8.3821875 11.81789062 7.75 10.8125 C6.84507812 9.36810547 6.84507812 9.36810547 5.921875 7.89453125 C4.08362455 5.12594673 2.11574051 2.56042049 0 0 Z " fill="#E5CC73" transform="translate(310,180)"/>
<path d="M0 0 C0.33 0.99 0.66 1.98 1 3 C-1.64 5.97 -4.28 8.94 -7 12 C-7.66 11.01 -8.32 10.02 -9 9 C-6.03 6.03 -3.06 3.06 0 0 Z " fill="#150A02" transform="translate(347,124)"/>
<path d="M0 0 C0.33 0 0.66 0 1 0 C0.67 2.97 0.34 5.94 0 9 C2.64 9 5.28 9 8 9 C8 9.33 8 9.66 8 10 C1.565 10.495 1.565 10.495 -5 11 C-4.360625 9.9275 -3.72125 8.855 -3.0625 7.75 C-1.59398727 5.19177818 -0.47145458 2.94659114 0 0 Z " fill="#2A1D0B" transform="translate(272,237)"/>
<path d="M0 0 C0.66 0.66 1.32 1.32 2 2 C-1.02211019 4.60744856 -3.15985424 5.46333045 -7.125 5.8125 C-8.42824219 5.94591797 -8.42824219 5.94591797 -9.7578125 6.08203125 C-12 6 -12 6 -14 4 C-6.57142857 2.71428571 -6.57142857 2.71428571 -3 4 C-3 3.34 -3 2.68 -3 2 C-2.01 1.34 -1.02 0.68 0 0 Z " fill="#2B1C03" transform="translate(179,167)"/>
<path d="M0 0 C-2.97 3.96 -2.97 3.96 -6 8 C-6.66 7.67 -7.32 7.34 -8 7 C-8 5.02 -8 3.04 -8 1 C-5 0 -5 0 0 0 Z " fill="#271905" transform="translate(227,216)"/>
<path d="M0 0 C-0.99 1.485 -0.99 1.485 -2 3 C-4.06298828 3.2487793 -4.06298828 3.2487793 -6.5703125 3.07421875 C-7.46621094 3.01943359 -8.36210937 2.96464844 -9.28515625 2.90820312 C-10.22230469 2.83537109 -11.15945312 2.76253906 -12.125 2.6875 C-13.06988281 2.62626953 -14.01476562 2.56503906 -14.98828125 2.50195312 C-17.32681186 2.34841324 -19.66342389 2.18053924 -22 2 C-22 1.67 -22 1.34 -22 1 C-14.65623924 0.42240084 -7.36901413 -0.14738028 0 0 Z " fill="#483C0D" transform="translate(264,210)"/>
<path d="M0 0 C3.63 0 7.26 0 11 0 C7.59141414 3.40858586 2.67798535 3.93008394 -2 4.125 C-2.66 4.08375 -3.32 4.0425 -4 4 C-2.68 3.34 -1.36 2.68 0 2 C0 1.34 0 0.68 0 0 Z " fill="#E5CB7A" transform="translate(215,169)"/>
<path d="M0 0 C-0.33 0.99 -0.66 1.98 -1 3 C-5.455 3.495 -5.455 3.495 -10 4 C-10 3.01 -10 2.02 -10 1 C-6.78548731 -0.60725635 -3.56387464 -0.05748185 0 0 Z " fill="#1B1308" transform="translate(237,169)"/>
<path d="M0 0 C3.33333333 1.66666667 6.66666667 3.33333333 10 5 C9.67 5.66 9.34 6.32 9 7 C9.99 7.33 10.98 7.66 12 8 C11.01 9.485 11.01 9.485 10 11 C8.33035479 9.35718838 6.6643536 7.71067239 5 6.0625 C4.071875 5.14597656 3.14375 4.22945312 2.1875 3.28515625 C0 1 0 1 0 0 Z " fill="#E1C66C" transform="translate(165,135)"/>
<path d="M0 0 C3 1 3 1 5 3 C4.45730469 3.24234375 3.91460937 3.4846875 3.35546875 3.734375 C-2.19085547 6.30892676 -2.19085547 6.30892676 -6 11 C-5.55530671 5.96014269 -3.28656638 3.62365012 0 0 Z " fill="#D6BB75" transform="translate(133,117)"/>
<path d="M0 0 C4.78504172 2.48454089 7.86077669 4.47951843 11 9 C10.34 9.66 9.68 10.32 9 11 C6 7.25 6 7.25 6 5 C5.195625 4.731875 4.39125 4.46375 3.5625 4.1875 C2.716875 3.795625 1.87125 3.40375 1 3 C0.67 2.01 0.34 1.02 0 0 Z " fill="#DCC36D" transform="translate(249,305)"/>
<path d="M0 0 C9.17286652 -0.63019694 9.17286652 -0.63019694 12.625 2 C13.07875 2.66 13.5325 3.32 14 4 C10.7997785 4 8.38516529 3.36757608 5.3125 2.5 C4.31863281 2.2215625 3.32476562 1.943125 2.30078125 1.65625 C1.54152344 1.4396875 0.78226562 1.223125 0 1 C0 0.67 0 0.34 0 0 Z " fill="#140B02" transform="translate(400,221)"/>
<path d="M0 0 C1.32 0 2.64 0 4 0 C4.33 4.95 4.66 9.9 5 15 C2.88955618 11.83433427 2.24447923 9.48802585 1.375 5.8125 C1.11460937 4.72582031 0.85421875 3.63914063 0.5859375 2.51953125 C0.39257812 1.68808594 0.19921875 0.85664063 0 0 Z " fill="#E6CB61" transform="translate(321,196)"/>
<path d="M0 0 C0.33 0 0.66 0 1 0 C1.04898438 0.88042969 1.09796875 1.76085937 1.1484375 2.66796875 C1.22320312 3.82941406 1.29796875 4.99085938 1.375 6.1875 C1.44460937 7.33605469 1.51421875 8.48460937 1.5859375 9.66796875 C1.97509574 12.79959117 2.6809851 15.15285809 4 18 C3.34 18.33 2.68 18.66 2 19 C0 18 0 18 -0.65234375 16.390625 C-1.12961093 13.10874283 -0.8376103 10.05132357 -0.5625 6.75 C-0.46066406 5.48671875 -0.35882813 4.2234375 -0.25390625 2.921875 C-0.17011719 1.95765625 -0.08632812 0.9934375 0 0 Z " fill="#4E3C10" transform="translate(205,317)"/>
<path d="M0 0 C0.66 0 1.32 0 2 0 C2 0.66 2 1.32 2 2 C2.66 2 3.32 2 4 2 C3.67 3.65 3.34 5.3 3 7 C2.34 6.34 1.68 5.68 1 5 C0.67 6.32 0.34 7.64 0 9 C-0.66 9 -1.32 9 -2 9 C-1.51421457 5.87709365 -1.0013988 3.00419641 0 0 Z " fill="#EFCB60" transform="translate(321,239)"/>
<path d="M0 0 C0.66 0 1.32 0 2 0 C2.125 5.75 2.125 5.75 1 8 C-0.32 8 -1.64 8 -3 8 C-2.25 2.25 -2.25 2.25 0 0 Z " fill="#140C08" transform="translate(85,225)"/>
<path d="M0 0 C0.66 0 1.32 0 2 0 C1.01 5.28 0.02 10.56 -1 16 C-1.33 16 -1.66 16 -2 16 C-2.05449838 14.27119018 -2.09301688 12.54187288 -2.125 10.8125 C-2.14820313 9.84957031 -2.17140625 8.88664063 -2.1953125 7.89453125 C-1.9913544 4.87187222 -1.26874632 2.73230015 0 0 Z " fill="#E0CA7F" transform="translate(170,212)"/>
<path d="M0 0 C0.66 0.33 1.32 0.66 2 1 C2 1.99 2 2.98 2 4 C1.360625 4.28875 0.72125 4.5775 0.0625 4.875 C-2.15206079 5.82823451 -2.15206079 5.82823451 -3 8 C-3.66 8 -4.32 8 -5 8 C-4.125 3.25 -4.125 3.25 -3 1 C-2.01 0.67 -1.02 0.34 0 0 Z " fill="#F1CE61" transform="translate(87,217)"/>
<path d="M0 0 C0.33 1.32 0.66 2.64 1 4 C1.66 4 2.32 4 3 4 C3.69710731 5.28650706 4.38242876 6.57940665 5.0625 7.875 C5.44535156 8.59429687 5.82820313 9.31359375 6.22265625 10.0546875 C6.47917969 10.69664062 6.73570312 11.33859375 7 12 C6.67 12.66 6.34 13.32 6 14 C-0.14673913 6.75 -0.14673913 6.75 0 0 Z " fill="#2D200B" transform="translate(315,157)"/>
<path d="M0 0 C0 0.99 0 1.98 0 3 C-0.33 3.33 -0.66 3.66 -1 4 C-1.36760731 6.32817964 -1.70241581 8.6618385 -2 11 C-2.66 11 -3.32 11 -4 11 C-4.33 8.69 -4.66 6.38 -5 4 C-4.01 3.67 -3.02 3.34 -2 3 C-2 2.34 -2 1.68 -2 1 C-1.34 0.67 -0.68 0.34 0 0 Z " fill="#EECE6C" transform="translate(129,120)"/>
<path d="M0 0 C1.79244141 0.01740234 1.79244141 0.01740234 3.62109375 0.03515625 C5.41740234 0.04869141 5.41740234 0.04869141 7.25 0.0625 C8.17683594 0.07410156 9.10367187 0.08570313 10.05859375 0.09765625 C9.72859375 0.75765625 9.39859375 1.41765625 9.05859375 2.09765625 C6.87890625 2.58203125 6.87890625 2.58203125 4.18359375 2.84765625 C3.29929687 2.945625 2.415 3.04359375 1.50390625 3.14453125 C-0.94140625 3.09765625 -0.94140625 3.09765625 -3.94140625 1.09765625 C-2.94140625 0.09765625 -2.94140625 0.09765625 0 0 Z " fill="#2D1D03" transform="translate(326.94140625,169.90234375)"/>
<path d="M0 0 C4.87362847 0.45336079 7.39042389 1.7089159 11 5 C6.6822542 4.49202991 2.96697886 3.80317221 -1 2 C-0.67 1.34 -0.34 0.68 0 0 Z " fill="#352707" transform="translate(183,379)"/>
<path d="M0 0 C1.45947705 0.06006078 2.91779272 0.1488689 4.375 0.25 C5.59316406 0.31960937 5.59316406 0.31960937 6.8359375 0.390625 C9 1 9 1 10.2890625 3.046875 C10.64097656 4.01367188 10.64097656 4.01367188 11 5 C8.36 4.34 5.72 3.68 3 3 C3 2.34 3 1.68 3 1 C2.01 0.67 1.02 0.34 0 0 Z " fill="#E9CD6C" transform="translate(405,218)"/>
<path d="M0 0 C0.33 0.66 0.66 1.32 1 2 C-2.49359465 5.59634744 -6.11098131 8.83451967 -10 12 C-10.66 11.67 -11.32 11.34 -12 11 C-11.30132812 10.37351563 -10.60265625 9.74703125 -9.8828125 9.1015625 C-8.97273438 8.28429687 -8.06265625 7.46703125 -7.125 6.625 C-5.76761719 5.40683594 -5.76761719 5.40683594 -4.3828125 4.1640625 C-2.89103817 2.80923795 -1.42494565 1.42494565 0 0 Z " fill="#D8BE6A" transform="translate(348,160)"/>
<path d="M0 0 C1.1055189 0.93590504 2.20935453 1.87379858 3.3125 2.8125 C3.92738281 3.33457031 4.54226562 3.85664063 5.17578125 4.39453125 C6.85424679 5.87172469 8.43882034 7.40039131 10 9 C9.67 9.66 9.34 10.32 9 11 C2.35384615 6.81538462 2.35384615 6.81538462 0.5625 2.6875 C0.376875 1.800625 0.19125 0.91375 0 0 Z " fill="#E1C970" transform="translate(139,149)"/>
<path d="M0 0 C-1.12672879 3.38018638 -2.48086363 4.5572011 -5 7 C-5.99 8.485 -5.99 8.485 -7 10 C-7.66 10 -8.32 10 -9 10 C-7.6834994 5.81113445 -4.97532335 0 0 0 Z " fill="#1F1709" transform="translate(245,78)"/>
<path d="M0 0 C0 0.99 0 1.98 0 3 C-7.92 3.495 -7.92 3.495 -16 4 C-16 3.67 -16 3.34 -16 3 C-15.22914063 2.86722656 -14.45828125 2.73445313 -13.6640625 2.59765625 C-12.66117188 2.42105469 -11.65828125 2.24445313 -10.625 2.0625 C-9.62726563 1.88847656 -8.62953125 1.71445312 -7.6015625 1.53515625 C-0.13868613 0 -0.13868613 0 0 0 Z " fill="#1A1105" transform="translate(265,380)"/>
<path d="M0 0 C0.99 0.33 1.98 0.66 3 1 C3 3.31 3 5.62 3 8 C2.34 8 1.68 8 1 8 C0.67 8.66 0.34 9.32 0 10 C0 6.7 0 3.4 0 0 Z " fill="#050112" transform="translate(146,228)"/>
<path d="M0 0 C1.65 0.33 3.3 0.66 5 1 C4.2575 1.556875 3.515 2.11375 2.75 2.6875 C0.08292005 4.93027178 -1.91556232 7.22074975 -4 10 C-3.67 7.69 -3.34 5.38 -3 3 C-2.01 3 -1.02 3 0 3 C0 2.01 0 1.02 0 0 Z " fill="#D7C27A" transform="translate(352,220)"/>
<path d="M0 0 C-0.9520721 1.00596297 -1.91187346 2.00461563 -2.875 3 C-3.40867187 3.556875 -3.94234375 4.11375 -4.4921875 4.6875 C-6 6 -6 6 -8 6 C-8 4.68 -8 3.36 -8 2 C-3.82258065 -1.27419355 -3.82258065 -1.27419355 0 0 Z " fill="#2D1C07" transform="translate(356,154)"/>
<path d="M0 0 C0.66 0 1.32 0 2 0 C0.59155282 3.21524305 -1.10344786 5.32183868 -3.625 7.75 C-4.57246094 8.67039063 -4.57246094 8.67039063 -5.5390625 9.609375 C-6.02117187 10.06828125 -6.50328125 10.5271875 -7 11 C-7.33 10.01 -7.66 9.02 -8 8 C-7.34 8 -6.68 8 -6 8 C-6 7.01 -6 6.02 -6 5 C-4.36368108 3.95107762 -2.69514137 2.95093297 -1 2 C-0.67 1.34 -0.34 0.68 0 0 Z " fill="#DBC582" transform="translate(346,122)"/>
<path d="M0 0 C5.75 -0.125 5.75 -0.125 8 1 C8 1.66 8 2.32 8 3 C5.03 3 2.06 3 -1 3 C-0.67 2.01 -0.34 1.02 0 0 Z " fill="#1E180B" transform="translate(254,257)"/>
<path d="M0 0 C0.66 0 1.32 0 2 0 C0.25740319 9.59453303 0.25740319 9.59453303 -3 13 C-2.52060632 8.28596212 -2.03165952 4.33420699 0 0 Z " fill="#332A0F" transform="translate(173,209)"/>
<path d="M0 0 C2.64 0 5.28 0 8 0 C7.67 0.99 7.34 1.98 7 3 C8.32 3.33 9.64 3.66 11 4 C11 4.66 11 5.32 11 6 C7.2089881 4.55049545 3.6125362 2.84827434 0 1 C0 0.67 0 0.34 0 0 Z " fill="#DBC16E" transform="translate(296,172)"/>
<path d="M0 0 C0.99 0.33 1.98 0.66 3 1 C2.44570313 1.38671875 1.89140625 1.7734375 1.3203125 2.171875 C0.23363281 2.95304688 0.23363281 2.95304688 -0.875 3.75 C-1.59429687 4.26046875 -2.31359375 4.7709375 -3.0546875 5.296875 C-5.08570565 7.07503547 -5.97855012 8.52701607 -7 11 C-7.36458333 6.50347222 -7.36458333 6.50347222 -5.6875 4.1875 C-4 3 -4 3 -1 3 C-0.67 2.01 -0.34 1.02 0 0 Z " fill="#EED264" transform="translate(330,135)"/>
<path d="M0 0 C1.98 0 3.96 0 6 0 C4.02 2.31 2.04 4.62 0 7 C-0.99 6.67 -1.98 6.34 -3 6 C-2.01 5.67 -1.02 5.34 0 5 C0 3.35 0 1.7 0 0 Z " fill="#2B1F08" transform="translate(290,365)"/>
<path d="M0 0 C2.04371546 1.677033 2.92353251 2.53872837 3.36328125 5.19140625 C3.34652344 5.97386719 3.32976562 6.75632813 3.3125 7.5625 C3.30863281 8.34753906 3.30476563 9.13257813 3.30078125 9.94140625 C3 12 3 12 1 14 C1.03480469 13.09507812 1.03480469 13.09507812 1.0703125 12.171875 C1.08835937 11.37265625 1.10640625 10.5734375 1.125 9.75 C1.14820313 8.96109375 1.17140625 8.1721875 1.1953125 7.359375 C0.9828378 4.79268059 0.28654105 3.2083933 -1 1 C-0.67 0.67 -0.34 0.34 0 0 Z " fill="#271403" transform="translate(415,226)"/>
<path d="M0 0 C0.33 0.66 0.66 1.32 1 2 C-3.455 3.485 -3.455 3.485 -8 5 C-8.66 4.34 -9.32 3.68 -10 3 C-6.48812804 0.59185923 -4.27343092 -0.36629408 0 0 Z " fill="#2A1D03" transform="translate(236,211)"/>
<path d="M0 0 C-1.32 0.33 -2.64 0.66 -4 1 C-4 1.66 -4 2.32 -4 3 C-6.64 3 -9.28 3 -12 3 C-8.61613364 -0.38386636 -4.56431325 -1.75550509 0 0 Z " fill="#2E230E" transform="translate(223,172)"/>
<path d="M0 0 C0.33 0.66 0.66 1.32 1 2 C-2.63 2.33 -6.26 2.66 -10 3 C-10 2.34 -10 1.68 -10 1 C-3.44680851 -1.53191489 -3.44680851 -1.53191489 0 0 Z " fill="#261A0C" transform="translate(253,341)"/>
<path d="M0 0 C0.66 0.33 1.32 0.66 2 1 C-0.64 3.64 -3.28 6.28 -6 9 C-6.33 8.01 -6.66 7.02 -7 6 C-6.360625 5.731875 -5.72125 5.46375 -5.0625 5.1875 C-2.66868314 4.11332248 -2.66868314 4.11332248 -2 1 C-1.34 0.67 -0.68 0.34 0 0 Z " fill="#281702" transform="translate(345,161)"/>
<path d="M0 0 C1.258125 -0.04125 2.51625 -0.0825 3.8125 -0.125 C4.52019531 -0.14820312 5.22789062 -0.17140625 5.95703125 -0.1953125 C8 0 8 0 11 2 C9.4375 3.1875 9.4375 3.1875 7 4 C3.25 2.625 3.25 2.625 0 1 C0 0.67 0 0.34 0 0 Z " fill="#201405" transform="translate(355,119)"/>
<path d="M0 0 C5.875 3.625 5.875 3.625 7 7 C5.68 7.33 4.36 7.66 3 8 C1.92474806 5.34771188 0.90543849 2.71631546 0 0 Z " fill="#251B09" transform="translate(289,268)"/>
<path d="M0 0 C4.56454251 0.54339792 7.9728176 1.79463821 12 4 C12 4.33 12 4.66 12 5 C6.92387682 5.61528766 4.17017994 3.61658349 0 1 C0 0.67 0 0.34 0 0 Z " fill="#251702" transform="translate(274,262)"/>
<path d="M0 0 C0.66 0.33 1.32 0.66 2 1 C1.34 3.97 0.68 6.94 0 10 C-0.66 10 -1.32 10 -2 10 C-2.17942163 6.05272412 -2.09350689 3.4019487 0 0 Z " fill="#251C08" transform="translate(350,226)"/>
<path d="M0 0 C0 0.99 0 1.98 0 3 C-0.99 3.33 -1.98 3.66 -3 4 C-3.33 4.99 -3.66 5.98 -4 7 C-4.66 7 -5.32 7 -6 7 C-6.33 6.01 -6.66 5.02 -7 4 C-4.69 2.68 -2.38 1.36 0 0 Z " fill="#E2C263" transform="translate(231,214)"/>
<path d="M0 0 C1.485 0.99 1.485 0.99 3 2 C4.299375 2.2475 4.299375 2.2475 5.625 2.5 C6.40875 2.665 7.1925 2.83 8 3 C8.33 3.66 8.66 4.32 9 5 C7.02 5.33 5.04 5.66 3 6 C3 5.34 3 4.68 3 4 C2.01 3.67 1.02 3.34 0 3 C0 2.01 0 1.02 0 0 Z " fill="#EFD069" transform="translate(315,168)"/>
<path d="M0 0 C0.99 0.33 1.98 0.66 3 1 C3 1.99 3 2.98 3 4 C0 5 0 5 -3 4 C-2.67 3.01 -2.34 2.02 -2 1 C-1.34 0.67 -0.68 0.34 0 0 Z " fill="#EACB59" transform="translate(278,378)"/>
<path d="M0 0 C0.94875 0.350625 1.8975 0.70125 2.875 1.0625 C2.545 1.7225 2.215 2.3825 1.875 3.0625 C-1.1875 3.6875 -1.1875 3.6875 -4.125 4.0625 C-4.455 2.7425 -4.785 1.4225 -5.125 0.0625 C-3.125 -0.9375 -3.125 -0.9375 0 0 Z " fill="#191601" transform="translate(295.125,361.9375)"/>
<path d="M0 0 C1.48280196 0.78483659 2.9611498 1.57809334 4.4375 2.375 C5.67306641 3.03628906 5.67306641 3.03628906 6.93359375 3.7109375 C9 5 9 5 10 7 C7.69 6.67 5.38 6.34 3 6 C2.67 5.01 2.34 4.02 2 3 C1.34 2.67 0.68 2.34 0 2 C0 1.34 0 0.68 0 0 Z " fill="#E3CA6E" transform="translate(185,279)"/>
<path d="M0 0 C2.64 0.66 5.28 1.32 8 2 C8.33 3.65 8.66 5.3 9 7 C6.03 5.35 3.06 3.7 0 2 C0 1.34 0 0.68 0 0 Z " fill="#D9C170" transform="translate(141,219)"/>
<path d="M0 0 C-3.75 3 -3.75 3 -6 3 C-6.33 3.66 -6.66 4.32 -7 5 C-7 4.34 -7 3.68 -7 3 C-7.66 2.67 -8.32 2.34 -9 2 C-8.34 2 -7.68 2 -7 2 C-7 1.34 -7 0.68 -7 0 C-3.98968256 -0.93423645 -3.13349732 -1.04449911 0 0 Z " fill="#D7BE71" transform="translate(355,119)"/>
<path d="M0 0 C0.66 0.33 1.32 0.66 2 1 C1.34 5.62 0.68 10.24 0 15 C-0.33 15 -0.66 15 -1 15 C-1.02693575 12.87506859 -1.04636628 10.75004088 -1.0625 8.625 C-1.07410156 7.44164063 -1.08570313 6.25828125 -1.09765625 5.0390625 C-1 2 -1 2 0 0 Z " fill="#E0CB84" transform="translate(236,81)"/>
<path d="M0 0 C3.3 0.99 6.6 1.98 10 3 C10 3.66 10 4.32 10 5 C8.51793505 4.745504 7.03931385 4.47088238 5.5625 4.1875 C4.73878906 4.03667969 3.91507813 3.88585937 3.06640625 3.73046875 C2.38449219 3.48941406 1.70257813 3.24835938 1 3 C0.67 2.01 0.34 1.02 0 0 Z " fill="#E2C569" transform="translate(202,289)"/>
<path d="M0 0 C0.99 0.33 1.98 0.66 3 1 C3 1.66 3 2.32 3 3 C4.65 3.33 6.3 3.66 8 4 C8 4.66 8 5.32 8 6 C4.22454612 4.90931332 1.52956528 4.0916909 -1 1 C-0.67 0.67 -0.34 0.34 0 0 Z " fill="#45340C" transform="translate(195,283)"/>
<path d="M0 0 C1.65 1.65 3.3 3.3 5 5 C4.01 5.495 4.01 5.495 3 6 C2.67 6.66 2.34 7.32 2 8 C1.71125 7.195625 1.4225 6.39125 1.125 5.5625 C0.26737432 2.8673532 0.26737432 2.8673532 -2 2 C-1.34 1.34 -0.68 0.68 0 0 Z " fill="#D5BB5D" transform="translate(175,268)"/>
<path d="M0 0 C0.33 0.66 0.66 1.32 1 2 C3.02463255 2.65213292 3.02463255 2.65213292 5 3 C5.33 4.65 5.66 6.3 6 8 C5.34 8 4.68 8 4 8 C2.7109375 6.46875 2.7109375 6.46875 1.375 4.5 C0.70597656 3.52546875 0.70597656 3.52546875 0.0234375 2.53125 C-0.31429688 2.0259375 -0.65203125 1.520625 -1 1 C-0.67 0.67 -0.34 0.34 0 0 Z " fill="#D4BB69" transform="translate(413,221)"/>
<path d="M0 0 C0.99 0 1.98 0 3 0 C3.625 1.875 3.625 1.875 4 4 C3.34 4.66 2.68 5.32 2 6 C1.34 6 0.68 6 0 6 C0 4.02 0 2.04 0 0 Z " fill="#201D0A" transform="translate(316,191)"/>
<path d="M0 0 C0.66 0.66 1.32 1.32 2 2 C1.01 2.33 0.02 2.66 -1 3 C-1.69937532 4.31647119 -2.36729133 5.65022151 -3 7 C-3.99 7.495 -3.99 7.495 -5 8 C-5 6.68 -5 5.36 -5 4 C-2.5 1.75 -2.5 1.75 0 0 Z " fill="#C3AE6F" transform="translate(322,145)"/>
<path d="M0 0 C3.25543229 0.34879632 4.01873107 1.02133261 6.25 3.5625 C6.8275 4.366875 7.405 5.17125 8 6 C7.67 6.66 7.34 7.32 7 8 C5.83035398 6.8572081 4.66435444 5.71068285 3.5 4.5625 C2.8503125 3.92441406 2.200625 3.28632813 1.53125 2.62890625 C0 1 0 1 0 0 Z " fill="#160700" transform="translate(135,144)"/>
<path d="M0 0 C2.17854707 3.2678206 3.49760034 6.38058265 5 10 C4.01 10 3.02 10 2 10 C0.68373308 6.38026598 0 3.90432869 0 0 Z " fill="#D7C06D" transform="translate(170,258)"/>
<path d="M0 0 C0.66 0.33 1.32 0.66 2 1 C2 1.66 2 2.32 2 3 C3.32 3.66 4.64 4.32 6 5 C5.01 5.495 5.01 5.495 4 6 C-0.70491803 3.59016393 -0.70491803 3.59016393 -2 1 C-1.34 0.67 -0.68 0.34 0 0 Z " fill="#211303" transform="translate(353,240)"/>
<path d="M0 0 C0.66 0 1.32 0 2 0 C1.67 2.64 1.34 5.28 1 8 C0.01 8.33 -0.98 8.66 -2 9 C-1.34 6.03 -0.68 3.06 0 0 Z " fill="#D7BC5E" transform="translate(323,230)"/>
<path d="M0 0 C0.33 0 0.66 0 1 0 C0.38461538 7.50769231 0.38461538 7.50769231 -1.5625 10 C-2.036875 10.33 -2.51125 10.66 -3 11 C-3.33 10.01 -3.66 9.02 -4 8 C-3.03542166 6.64082143 -2.03145371 5.30915279 -1 4 C-0.29485154 1.85266073 -0.29485154 1.85266073 0 0 Z " fill="#372607" transform="translate(184,157)"/>
<path d="M0 0 C2.0625 0.4375 2.0625 0.4375 4 1 C3.67 1.99 3.34 2.98 3 4 C2.01 4.33 1.02 4.66 0 5 C-0.5625 3.0625 -0.5625 3.0625 -1 1 C-0.67 0.67 -0.34 0.34 0 0 Z " fill="#F3D145" transform="translate(342,119)"/>
<path d="M0 0 C1.32 0.66 2.64 1.32 4 2 C3.1875 3.9375 3.1875 3.9375 2 6 C1.01 6.33 0.02 6.66 -1 7 C-1 6.01 -1 5.02 -1 4 C-0.34 4 0.32 4 1 4 C0.67 2.68 0.34 1.36 0 0 Z " fill="#20150D" transform="translate(257,79)"/>
<path d="M0 0 C-3.96 1.98 -3.96 1.98 -8 4 C-7.67 2.68 -7.34 1.36 -7 0 C-4 -1 -4 -1 0 0 Z " fill="#D5C27B" transform="translate(200,180)"/>
<path d="M0 0 C1.98 1.65 3.96 3.3 6 5 C5.01 5.66 4.02 6.32 3 7 C1.68 5.02 0.36 3.04 -1 1 C-0.67 0.67 -0.34 0.34 0 0 Z " fill="#180D00" transform="translate(171,142)"/>
</svg>
